<svg width="11" height="11" viewBox="0 0 11 11" fill="none" xmlns="http://www.w3.org/2000/svg">
<path fill-rule="evenodd" clip-rule="evenodd" d="M5.5 0.846154C2.92975 0.846154 0.846154 2.92975 0.846154 5.5C0.846154 8.07025 2.92975 10.1538 5.5 10.1538C8.07025 10.1538 10.1538 8.07025 10.1538 5.5C10.1538 2.92975 8.07025 0.846154 5.5 0.846154ZM0 5.5C0 2.46243 2.46243 0 5.5 0C8.53757 0 11 2.46243 11 5.5C11 8.53757 8.53757 11 5.5 11C2.46243 11 0 8.53757 0 5.5Z" fill="#065EA6"/>
<path fill-rule="evenodd" clip-rule="evenodd" d="M0.290865 3.80769C0.290865 3.57403 0.480283 3.38462 0.713942 3.38462H10.2861C10.5197 3.38462 10.7091 3.57403 10.7091 3.80769C10.7091 4.04135 10.5197 4.23077 10.2861 4.23077H0.713942C0.480283 4.23077 0.290865 4.04135 0.290865 3.80769Z" fill="#065EA6"/>
<path fill-rule="evenodd" clip-rule="evenodd" d="M0.290865 7.19231C0.290865 6.95865 0.480283 6.76923 0.713942 6.76923H10.2861C10.5197 6.76923 10.7091 6.95865 10.7091 7.19231C10.7091 7.42597 10.5197 7.61538 10.2861 7.61538H0.713942C0.480283 7.61538 0.290865 7.42597 0.290865 7.19231Z" fill="#065EA6"/>
<path fill-rule="evenodd" clip-rule="evenodd" d="M4.39311 2.17384C4.03779 3.00352 3.80769 4.17919 3.80769 5.49998C3.80769 6.82077 4.03779 7.99644 4.39311 8.82612C4.57109 9.24172 4.77217 9.55099 4.97389 9.75022C5.1738 9.94766 5.3511 10.0163 5.5 10.0163C5.6489 10.0163 5.8262 9.94766 6.02611 9.75022C6.22783 9.55099 6.42891 9.24172 6.60689 8.82612C6.96221 7.99644 7.19231 6.82077 7.19231 5.49998C7.19231 4.17919 6.96221 3.00352 6.60689 2.17384C6.42891 1.75824 6.22783 1.44896 6.02611 1.24974C5.8262 1.0523 5.6489 0.983633 5.5 0.983633C5.3511 0.983633 5.1738 1.0523 4.97389 1.24974C4.77217 1.44896 4.57109 1.75824 4.39311 2.17384ZM4.3793 0.647703C4.68556 0.345243 5.06475 0.137479 5.5 0.137479C5.93525 0.137479 6.31444 0.345243 6.6207 0.647703C6.92513 0.948375 7.17989 1.36246 7.38472 1.84072C7.79501 2.79876 8.03846 4.0928 8.03846 5.49998C8.03846 6.90716 7.79501 8.20119 7.38472 9.15924C7.17989 9.6375 6.92513 10.0516 6.6207 10.3523C6.31444 10.6547 5.93525 10.8625 5.5 10.8625C5.06475 10.8625 4.68556 10.6547 4.3793 10.3523C4.07487 10.0516 3.82011 9.6375 3.61529 9.15924C3.20499 8.20119 2.96154 6.90716 2.96154 5.49998C2.96154 4.0928 3.20499 2.79876 3.61529 1.84072C3.82011 1.36246 4.07487 0.948375 4.3793 0.647703Z" fill="#065EA6"/>
</svg>
