<svg width="30" height="28" viewBox="0 0 30 28" fill="none" xmlns="http://www.w3.org/2000/svg">
<g clip-path="url(#clip0_3861_2534)">
<path d="M21.8578 27.9996C26.1176 27.9996 29.5708 24.5977 29.5708 20.4012C29.5708 16.2047 26.1176 12.8028 21.8578 12.8028C17.598 12.8028 14.1448 16.2047 14.1448 20.4012C14.1448 24.5977 17.598 27.9996 21.8578 27.9996Z" fill="#FFB300"/>
<path d="M7.18335 23.7712C10.0782 25.4059 13.5495 25.8951 16.7907 25.1028C19.4554 24.4489 21.8778 22.9407 23.6244 20.8549C25.371 18.7692 26.4465 16.0749 26.5749 13.3258C26.7033 10.5766 25.8918 7.74866 24.2736 5.46485C22.6554 3.18103 20.4365 1.55826 17.8445 0.684825C15.2525 -0.188609 12.1614 -0.224406 9.47012 0.684825C6.87812 1.56065 4.61073 3.25262 3.04099 5.46485C1.38647 7.794 0.57738 10.6529 0.744527 13.488C0.848692 15.2349 1.31864 16.9507 2.12289 18.5115C2.14469 18.5544 2.25128 18.7143 2.24643 18.6737C2.24643 18.6928 2.22948 18.7167 2.22463 18.7358C2.21252 18.8217 2.16649 18.9124 2.13985 18.9935L1.82493 19.9457C1.25808 21.6616 0.691234 23.3774 0.126808 25.0932L0.00326367 25.4631C-0.0306504 25.5681 0.0807814 25.6827 0.189791 25.6469C1.65052 25.1696 3.11124 24.6923 4.57197 24.2174L5.21149 24.0074C5.39559 23.9478 5.31565 23.659 5.13155 23.7187C3.67082 24.1959 2.2101 24.6732 0.749372 25.1481L0.109851 25.3581L0.296378 25.5419C0.734838 24.2103 1.17572 22.881 1.61418 21.5494C1.86854 20.7762 2.12531 20.003 2.37967 19.2298C2.42812 19.0818 2.51775 18.9076 2.53713 18.7525C2.56135 18.5544 2.35544 18.3086 2.26824 18.132C2.07202 17.7311 1.8976 17.3206 1.74741 16.903C0.700924 13.994 0.792976 10.7341 2.01388 7.89185C3.06764 5.44098 4.92564 3.35524 7.2536 2.00452C9.65665 0.618005 12.4909 0.0548069 15.2525 0.39368C17.9729 0.727781 20.5455 1.96634 22.5028 3.85878C24.4601 5.75122 25.7392 8.22356 26.1486 10.882C26.5579 13.5405 26.0347 16.4663 24.6491 18.8718C23.3167 21.1819 21.2407 23.0361 18.7771 24.1172C15.9332 25.3653 12.6411 25.5156 9.68572 24.5539C8.86936 24.289 8.08449 23.9358 7.33838 23.5158C7.16881 23.4204 7.0162 23.6781 7.18577 23.7736L7.18335 23.7712Z" fill="url(#paint0_radial_3861_2534)"/>
</g>
<path d="M13.427 13.6229C15.6543 13.6229 17.4598 11.8174 17.4598 9.59019C17.4598 7.36297 15.6543 5.55744 13.427 5.55744C11.1998 5.55744 9.39429 7.36297 9.39429 9.59019C9.39429 11.8174 11.1998 13.6229 13.427 13.6229Z" stroke="url(#paint1_radial_3861_2534)" stroke-width="0.409742" stroke-linecap="round" stroke-linejoin="round"/>
<path d="M5.97729 20.6287C5.97729 16.7597 9.11388 13.6231 12.9829 13.6231H13.8691C17.7381 13.6231 20.8747 16.7597 20.8747 20.6287" stroke="url(#paint2_radial_3861_2534)" stroke-width="0.409742" stroke-linecap="round" stroke-linejoin="round"/>
<path d="M13.9374 2.92668C14.189 2.67504 14.192 2.27008 13.9441 2.02218C13.6962 1.77428 13.2913 1.77731 13.0396 2.02895C12.788 2.28059 12.7849 2.68555 13.0328 2.93345C13.2808 3.18135 13.6857 3.17832 13.9374 2.92668Z" fill="url(#paint3_radial_3861_2534)"/>
<path d="M20.8607 11.7683C21.1123 11.5167 21.1154 11.1117 20.8675 10.8638C20.6196 10.6159 20.2146 10.6189 19.963 10.8706C19.7113 11.1222 19.7083 11.5272 19.9562 11.7751C20.2041 12.023 20.609 12.02 20.8607 11.7683Z" fill="url(#paint4_radial_3861_2534)"/>
<path d="M6.70078 11.7683C6.95242 11.5167 6.95545 11.1117 6.70755 10.8638C6.45965 10.6159 6.05469 10.6189 5.80305 10.8706C5.55141 11.1222 5.54838 11.5272 5.79628 11.7751C6.04418 12.023 6.44914 12.02 6.70078 11.7683Z" fill="url(#paint5_radial_3861_2534)"/>
<defs>
<radialGradient id="paint0_radial_3861_2534" cx="0" cy="0" r="1" gradientUnits="userSpaceOnUse" gradientTransform="translate(13.2951 12.8294) scale(13.0448 12.8509)">
<stop stop-color="#0F5BAD"/>
<stop offset="0.28" stop-color="#0B5097"/>
<stop offset="0.84" stop-color="#023560"/>
<stop offset="1" stop-color="#002D4F"/>
</radialGradient>
<radialGradient id="paint1_radial_3861_2534" cx="0" cy="0" r="1" gradientUnits="userSpaceOnUse" gradientTransform="translate(13.4271 9.59967) scale(2.76883 9.82899)">
<stop stop-color="#0F5BAD"/>
<stop offset="0.28" stop-color="#0B5097"/>
<stop offset="0.84" stop-color="#023560"/>
<stop offset="1" stop-color="#002D4F"/>
</radialGradient>
<radialGradient id="paint2_radial_3861_2534" cx="0" cy="0" r="1" gradientUnits="userSpaceOnUse" gradientTransform="translate(13.4262 17.1341) scale(5.11418 8.5374)">
<stop stop-color="#0F5BAD"/>
<stop offset="0.28" stop-color="#0B5097"/>
<stop offset="0.84" stop-color="#023560"/>
<stop offset="1" stop-color="#002D4F"/>
</radialGradient>
<radialGradient id="paint3_radial_3861_2534" cx="0" cy="0" r="1" gradientUnits="userSpaceOnUse" gradientTransform="translate(13.4905 2.47965) rotate(99.1283) scale(0.64103 0.638095)">
<stop stop-color="#0F5BAD"/>
<stop offset="0.28" stop-color="#0B5097"/>
<stop offset="0.84" stop-color="#023560"/>
<stop offset="1" stop-color="#002D4F"/>
</radialGradient>
<radialGradient id="paint4_radial_3861_2534" cx="0" cy="0" r="1" gradientUnits="userSpaceOnUse" gradientTransform="translate(20.4139 11.3213) rotate(99.1283) scale(0.64103 0.638095)">
<stop stop-color="#0F5BAD"/>
<stop offset="0.28" stop-color="#0B5097"/>
<stop offset="0.84" stop-color="#023560"/>
<stop offset="1" stop-color="#002D4F"/>
</radialGradient>
<radialGradient id="paint5_radial_3861_2534" cx="0" cy="0" r="1" gradientUnits="userSpaceOnUse" gradientTransform="translate(6.25396 11.3213) rotate(99.1283) scale(0.64103 0.638095)">
<stop stop-color="#0F5BAD"/>
<stop offset="0.28" stop-color="#0B5097"/>
<stop offset="0.84" stop-color="#023560"/>
<stop offset="1" stop-color="#002D4F"/>
</radialGradient>
<clipPath id="clip0_3861_2534">
<rect width="29.573" height="28" fill="white"/>
</clipPath>
</defs>
</svg>
