<svg width="11" height="11" viewBox="0 0 11 11" fill="none" xmlns="http://www.w3.org/2000/svg">
<path d="M6.90492 1.28865C8.27014 1.655 9.34557 2.73037 9.71195 4.09551C9.76484 4.29218 9.94279 4.4222 10.1373 4.4222C10.1753 4.4222 10.2133 4.41724 10.2519 4.40677C10.4871 4.34342 10.6265 4.10212 10.5631 3.86688C10.1158 2.1993 8.80125 0.884836 7.13355 0.437501C6.8983 0.374147 6.65699 0.514077 6.59364 0.748763C6.53028 0.983448 6.67022 1.22585 6.90492 1.28865Z" fill="#065EA6"/>
<path d="M6.44874 2.9915C7.20903 3.19368 7.80735 3.79141 8.009 4.55166C8.06134 4.74888 8.23984 4.87945 8.43487 4.87945C8.47234 4.87945 8.51035 4.87449 8.54837 4.86457C8.78362 4.80232 8.92355 4.56047 8.8613 4.32524C8.57812 3.25979 7.74069 2.42241 6.67517 2.13925C6.43992 2.07699 6.19861 2.21692 6.13581 2.45216C6.07355 2.6874 6.21349 2.92869 6.44874 2.9915Z" fill="#065EA6"/>
<path d="M10.4656 7.38827L7.88999 6.28205C7.61287 6.16085 7.29773 6.19005 7.04981 6.35808L5.67302 7.28029C4.82898 6.87427 4.13975 6.18674 3.73096 5.34441L4.65213 3.94346C4.8108 3.69555 4.83559 3.38705 4.71879 3.11931L3.61361 0.539419C3.4621 0.175821 3.0836 -0.0434387 2.69299 0.00724451C1.15807 0.203918 0 1.51893 0 3.06697C0 7.44115 3.55906 11 7.93352 11C9.4811 11 10.7962 9.842 10.9929 8.30718C11.043 7.91658 10.8243 7.53811 10.4651 7.38882L10.4656 7.38827ZM7.93352 10.118C4.04499 10.118 0.881502 6.95471 0.881502 3.06642C0.881502 1.96241 1.70681 1.02366 2.80097 0.88153L3.91222 3.46307L2.9905 4.86512C2.82521 5.12074 2.80428 5.45018 2.9354 5.72454L2.9365 5.72619C3.43125 6.74812 4.26757 7.58219 5.29342 8.0758C5.5733 8.20856 5.90717 8.18322 6.16225 8.01079L7.5396 7.09078L10.1185 8.1981C9.9764 9.29275 9.0376 10.1174 7.93352 10.1174V10.118Z" fill="#065EA6"/>
</svg>
