<svg width="270" height="69" viewBox="0 0 270 69" fill="none" xmlns="http://www.w3.org/2000/svg">
<path d="M70.932 29.3076L75.828 17.4076H78.667L83.512 29.3076H80.843L79.636 26.1796H74.723L73.499 29.3076H70.932ZM75.488 24.2076H78.888L77.188 19.8216L75.488 24.2076ZM87.5541 29.4776C86.8741 29.4776 86.2678 29.3303 85.7351 29.0356C85.2138 28.7296 84.8001 28.3103 84.4941 27.7776C84.1995 27.245 84.0521 26.633 84.0521 25.9416V20.4506H86.3811V25.6016C86.3811 26.1683 86.5455 26.6216 86.8741 26.9616C87.2141 27.3016 87.6675 27.4716 88.2341 27.4716C88.6195 27.4716 88.9651 27.398 89.2711 27.2506C89.5885 27.092 89.8491 26.871 90.0531 26.5876V20.4506H92.3821V29.3076H90.0531V28.5936C89.3731 29.183 88.5401 29.4776 87.5541 29.4776ZM98.3963 29.4436C97.4103 29.4436 96.6623 29.2226 96.1523 28.7806C95.6536 28.3273 95.4043 27.67 95.4043 26.8086V22.3886H93.5853V20.4506H95.4043V18.1896L97.7333 17.6626V20.4506H100.266V22.3886H97.7333V26.3326C97.7333 26.7406 97.824 27.0353 98.0053 27.2166C98.1866 27.3866 98.504 27.4716 98.9573 27.4716C99.184 27.4716 99.388 27.4603 99.5693 27.4376C99.762 27.4036 99.9716 27.347 100.198 27.2676V29.1886C99.9603 29.268 99.6656 29.3303 99.3143 29.3756C98.963 29.421 98.657 29.4436 98.3963 29.4436ZM105.621 29.4776C104.737 29.4776 103.938 29.2736 103.224 28.8656C102.51 28.4576 101.943 27.908 101.524 27.2166C101.104 26.5253 100.895 25.749 100.895 24.8876C100.895 24.0263 101.099 23.25 101.507 22.5586C101.926 21.856 102.493 21.3006 103.207 20.8926C103.932 20.4846 104.737 20.2806 105.621 20.2806C106.505 20.2806 107.304 20.4846 108.018 20.8926C108.743 21.3006 109.31 21.856 109.718 22.5586C110.137 23.25 110.347 24.0263 110.347 24.8876C110.347 25.749 110.137 26.5253 109.718 27.2166C109.31 27.908 108.749 28.4576 108.035 28.8656C107.321 29.2736 106.516 29.4776 105.621 29.4776ZM105.621 27.4546C106.085 27.4546 106.499 27.3413 106.862 27.1146C107.236 26.888 107.53 26.582 107.746 26.1966C107.972 25.8 108.086 25.3636 108.086 24.8876C108.086 24.4003 107.972 23.964 107.746 23.5786C107.53 23.1933 107.236 22.8873 106.862 22.6606C106.499 22.4226 106.085 22.3036 105.621 22.3036C105.167 22.3036 104.754 22.4226 104.38 22.6606C104.006 22.8873 103.711 23.1933 103.496 23.5786C103.28 23.964 103.173 24.4003 103.173 24.8876C103.173 25.3636 103.28 25.8 103.496 26.1966C103.711 26.582 104.006 26.888 104.38 27.1146C104.754 27.3413 105.167 27.4546 105.621 27.4546ZM111.778 29.3076V20.4506H114.107V21.4366C114.391 21.0513 114.731 20.7566 115.127 20.5526C115.524 20.3486 115.972 20.2466 116.47 20.2466C116.901 20.258 117.224 20.326 117.439 20.4506V22.4906C117.269 22.4113 117.082 22.3546 116.878 22.3206C116.674 22.2753 116.465 22.2526 116.249 22.2526C115.796 22.2526 115.382 22.366 115.008 22.5926C114.634 22.8193 114.334 23.1423 114.107 23.5616V29.3076H111.778ZM118.718 29.3076V20.4506H121.047V29.3076H118.718ZM119.874 19.3966C119.511 19.3966 119.199 19.2663 118.939 19.0056C118.678 18.745 118.548 18.4333 118.548 18.0706C118.548 17.6966 118.678 17.385 118.939 17.1356C119.199 16.875 119.511 16.7446 119.874 16.7446C120.248 16.7446 120.559 16.875 120.809 17.1356C121.069 17.385 121.2 17.6966 121.2 18.0706C121.2 18.4333 121.069 18.745 120.809 19.0056C120.559 19.2663 120.248 19.3966 119.874 19.3966ZM122.409 29.3076V27.6586L126.863 22.4056H122.443V20.4506H129.855V22.0996L125.384 27.3526H129.957V29.3076H122.409ZM134.174 29.4606C133.539 29.4606 132.978 29.3473 132.491 29.1206C132.003 28.8826 131.624 28.5596 131.352 28.1516C131.08 27.7436 130.944 27.2733 130.944 26.7406C130.944 25.8906 131.261 25.2333 131.896 24.7686C132.542 24.2926 133.426 24.0546 134.548 24.0546C135.318 24.0546 136.044 24.1736 136.724 24.4116V23.7656C136.724 23.2556 136.565 22.8703 136.248 22.6096C135.93 22.349 135.466 22.2186 134.854 22.2186C134.48 22.2186 134.077 22.281 133.647 22.4056C133.216 22.519 132.717 22.7003 132.151 22.9496L131.301 21.2326C132.003 20.9153 132.672 20.6773 133.307 20.5186C133.953 20.36 134.599 20.2806 135.245 20.2806C136.435 20.2806 137.358 20.5696 138.016 21.1476C138.684 21.7143 139.019 22.519 139.019 23.5616V29.3076H136.724V28.6786C136.361 28.9506 135.97 29.149 135.551 29.2736C135.131 29.3983 134.672 29.4606 134.174 29.4606ZM133.154 26.6896C133.154 27.0296 133.301 27.3016 133.596 27.5056C133.89 27.6983 134.281 27.7946 134.769 27.7946C135.154 27.7946 135.511 27.7493 135.84 27.6586C136.168 27.5566 136.463 27.4093 136.724 27.2166V25.9246C136.44 25.8113 136.146 25.7263 135.84 25.6696C135.534 25.613 135.205 25.5846 134.854 25.5846C134.321 25.5846 133.902 25.6866 133.596 25.8906C133.301 26.0833 133.154 26.3496 133.154 26.6896ZM147.023 29.4606C146.389 29.4606 145.828 29.3473 145.34 29.1206C144.853 28.8826 144.473 28.5596 144.201 28.1516C143.929 27.7436 143.793 27.2733 143.793 26.7406C143.793 25.8906 144.111 25.2333 144.745 24.7686C145.391 24.2926 146.275 24.0546 147.397 24.0546C148.168 24.0546 148.893 24.1736 149.573 24.4116V23.7656C149.573 23.2556 149.415 22.8703 149.097 22.6096C148.78 22.349 148.315 22.2186 147.703 22.2186C147.329 22.2186 146.927 22.281 146.496 22.4056C146.066 22.519 145.567 22.7003 145 22.9496L144.15 21.2326C144.853 20.9153 145.522 20.6773 146.156 20.5186C146.802 20.36 147.448 20.2806 148.094 20.2806C149.284 20.2806 150.208 20.5696 150.865 21.1476C151.534 21.7143 151.868 22.519 151.868 23.5616V29.3076H149.573V28.6786C149.211 28.9506 148.82 29.149 148.4 29.2736C147.981 29.3983 147.522 29.4606 147.023 29.4606ZM146.003 26.6896C146.003 27.0296 146.151 27.3016 146.445 27.5056C146.74 27.6983 147.131 27.7946 147.618 27.7946C148.004 27.7946 148.361 27.7493 148.689 27.6586C149.018 27.5566 149.313 27.4093 149.573 27.2166V25.9246C149.29 25.8113 148.995 25.7263 148.689 25.6696C148.383 25.613 148.055 25.5846 147.703 25.5846C147.171 25.5846 146.751 25.6866 146.445 25.8906C146.151 26.0833 146.003 26.3496 146.003 26.6896ZM157.204 29.3076V17.4076H163.171C163.953 17.4076 164.638 17.5663 165.228 17.8836C165.828 18.2009 166.299 18.6429 166.639 19.2096C166.99 19.765 167.166 20.411 167.166 21.1476C167.166 21.8503 166.99 22.4793 166.639 23.0346C166.299 23.59 165.828 24.0263 165.228 24.3436C164.627 24.661 163.941 24.8196 163.171 24.8196H159.669V29.3076H157.204ZM159.669 22.7796H162.899C163.431 22.7796 163.856 22.6323 164.174 22.3376C164.502 22.043 164.667 21.652 164.667 21.1646C164.667 20.666 164.502 20.2693 164.174 19.9746C163.856 19.6799 163.431 19.5326 162.899 19.5326H159.669V22.7796ZM173.191 29.4776C172.228 29.4776 171.287 29.302 170.369 28.9506C169.451 28.588 168.635 28.078 167.921 27.4206L169.332 25.6526C170.023 26.2533 170.686 26.6953 171.321 26.9786C171.967 27.2506 172.647 27.3866 173.361 27.3866C173.86 27.3866 174.29 27.33 174.653 27.2166C175.016 27.092 175.293 26.9163 175.486 26.6896C175.69 26.463 175.792 26.1966 175.792 25.8906C175.792 25.4826 175.645 25.171 175.35 24.9556C175.055 24.729 174.551 24.5533 173.837 24.4286L171.474 24.0206C170.465 23.8506 169.695 23.4936 169.162 22.9496C168.641 22.4056 168.38 21.703 168.38 20.8416C168.38 20.105 168.567 19.4646 168.941 18.9206C169.326 18.3766 169.865 17.9629 170.556 17.6796C171.259 17.385 172.092 17.2376 173.055 17.2376C173.928 17.2376 174.795 17.385 175.656 17.6796C176.529 17.9743 177.299 18.3823 177.968 18.9036L176.642 20.7396C175.395 19.7876 174.143 19.3116 172.885 19.3116C172.443 19.3116 172.058 19.3683 171.729 19.4816C171.4 19.595 171.145 19.7536 170.964 19.9576C170.794 20.1503 170.709 20.3826 170.709 20.6546C170.709 21.0173 170.839 21.3006 171.1 21.5046C171.361 21.6973 171.797 21.8446 172.409 21.9466L174.653 22.3206C175.843 22.5133 176.733 22.893 177.322 23.4596C177.911 24.015 178.206 24.7516 178.206 25.6696C178.206 26.4403 178.002 27.1146 177.594 27.6926C177.186 28.2593 176.602 28.7013 175.843 29.0186C175.095 29.3246 174.211 29.4776 173.191 29.4776ZM179.666 29.3076V17.4076H188.812V19.5496H182.131V22.2696H186.534V24.3436H182.131V27.1656H188.88V29.3076H179.666ZM72.428 54.9456C72.2693 54.9456 72.1163 54.9343 71.969 54.9116C71.833 54.9003 71.7197 54.8833 71.629 54.8606V53.7216C71.8217 53.767 72.0597 53.7896 72.343 53.7896C73.091 53.7896 73.6577 53.3476 74.043 52.4636L74.553 51.2906L71.085 42.7906H72.479L75.233 49.7776L78.208 42.7906H79.568L75.318 52.6336C75.08 53.1776 74.825 53.6196 74.553 53.9596C74.281 54.2996 73.9693 54.549 73.618 54.7076C73.278 54.8663 72.8813 54.9456 72.428 54.9456ZM84.3894 51.3076V42.7906H85.6474V43.9976C85.908 43.5556 86.2367 43.2156 86.6334 42.9776C87.0414 42.7283 87.506 42.6036 88.0274 42.6036C88.322 42.6036 88.5884 42.6433 88.8264 42.7226V43.8786C88.679 43.822 88.5317 43.7823 88.3844 43.7596C88.237 43.737 88.0897 43.7256 87.9424 43.7256C87.421 43.7256 86.962 43.8786 86.5654 44.1846C86.18 44.4793 85.874 44.91 85.6474 45.4766V51.3076H84.3894ZM93.6637 51.4606C92.8477 51.4606 92.1053 51.268 91.4367 50.8826C90.7793 50.486 90.2523 49.9533 89.8557 49.2846C89.4703 48.616 89.2777 47.868 89.2777 47.0406C89.2777 46.2246 89.4647 45.488 89.8387 44.8306C90.2127 44.162 90.717 43.635 91.3517 43.2496C91.9863 42.853 92.6947 42.6546 93.4767 42.6546C94.236 42.6546 94.916 42.853 95.5167 43.2496C96.1287 43.635 96.6103 44.162 96.9617 44.8306C97.3243 45.488 97.5057 46.2246 97.5057 47.0406V47.4316H90.5187C90.5867 47.987 90.7623 48.4856 91.0457 48.9276C91.3403 49.3696 91.72 49.721 92.1847 49.9816C92.6493 50.231 93.1593 50.3556 93.7147 50.3556C94.1567 50.3556 94.5873 50.2876 95.0067 50.1516C95.426 50.0156 95.7773 49.823 96.0607 49.5736L96.8427 50.4066C96.3667 50.758 95.868 51.0243 95.3467 51.2056C94.8367 51.3756 94.2757 51.4606 93.6637 51.4606ZM90.5527 46.4286H96.2477C96.1797 45.9186 96.0097 45.4653 95.7377 45.0686C95.477 44.6606 95.1483 44.3433 94.7517 44.1166C94.355 43.8786 93.9187 43.7596 93.4427 43.7596C92.9553 43.7596 92.5077 43.8729 92.0997 44.0996C91.6917 44.3263 91.3517 44.6436 91.0797 45.0516C90.8077 45.4483 90.632 45.9073 90.5527 46.4286ZM101.784 51.4606C101.161 51.4606 100.611 51.353 100.135 51.1376C99.6707 50.9223 99.3023 50.622 99.0303 50.2366C98.7697 49.8513 98.6393 49.4036 98.6393 48.8936C98.6393 48.089 98.9453 47.4543 99.5573 46.9896C100.169 46.525 100.997 46.2926 102.039 46.2926C102.957 46.2926 103.79 46.4853 104.538 46.8706V45.7486C104.538 45.0686 104.346 44.5586 103.96 44.2186C103.575 43.8673 103.014 43.6916 102.277 43.6916C101.858 43.6916 101.433 43.754 101.002 43.8786C100.583 43.992 100.118 44.179 99.6083 44.4396L99.1323 43.4706C99.7443 43.176 100.311 42.9606 100.832 42.8246C101.354 42.6886 101.875 42.6206 102.396 42.6206C103.473 42.6206 104.3 42.8756 104.878 43.3856C105.468 43.8956 105.762 44.6266 105.762 45.5786V51.3076H104.538V50.4746C104.153 50.8033 103.728 51.0526 103.263 51.2226C102.81 51.3813 102.317 51.4606 101.784 51.4606ZM99.8463 48.8596C99.8463 49.3356 100.045 49.7266 100.441 50.0326C100.849 50.3273 101.371 50.4746 102.005 50.4746C102.515 50.4746 102.98 50.3953 103.399 50.2366C103.819 50.078 104.198 49.8286 104.538 49.4886V47.8906C104.187 47.6526 103.813 47.4826 103.416 47.3806C103.02 47.2673 102.572 47.2106 102.073 47.2106C101.393 47.2106 100.849 47.3636 100.441 47.6696C100.045 47.9643 99.8463 48.361 99.8463 48.8596ZM107.864 51.3076V39.4076L109.122 39.1186V51.3076H107.864ZM111.267 51.3076V42.7906H112.525V51.3076H111.267ZM111.896 41.1586C111.67 41.1586 111.471 41.0736 111.301 40.9036C111.131 40.7336 111.046 40.5353 111.046 40.3086C111.046 40.0706 111.131 39.8723 111.301 39.7136C111.471 39.5436 111.67 39.4586 111.896 39.4586C112.134 39.4586 112.333 39.5436 112.491 39.7136C112.661 39.8723 112.746 40.0706 112.746 40.3086C112.746 40.5353 112.661 40.7336 112.491 40.9036C112.333 41.0736 112.134 41.1586 111.896 41.1586ZM114.127 51.3076V50.3216L119.261 43.9126H114.178V42.7906H120.791V43.7596L115.64 50.1856H120.842V51.3076H114.127ZM125.226 51.4606C124.602 51.4606 124.053 51.353 123.577 51.1376C123.112 50.9223 122.744 50.622 122.472 50.2366C122.211 49.8513 122.081 49.4036 122.081 48.8936C122.081 48.089 122.387 47.4543 122.999 46.9896C123.611 46.525 124.438 46.2926 125.481 46.2926C126.399 46.2926 127.232 46.4853 127.98 46.8706V45.7486C127.98 45.0686 127.787 44.5586 127.402 44.2186C127.016 43.8673 126.455 43.6916 125.719 43.6916C125.299 43.6916 124.874 43.754 124.444 43.8786C124.024 43.992 123.56 44.179 123.05 44.4396L122.574 43.4706C123.186 43.176 123.752 42.9606 124.274 42.8246C124.795 42.6886 125.316 42.6206 125.838 42.6206C126.914 42.6206 127.742 42.8756 128.32 43.3856C128.909 43.8956 129.204 44.6266 129.204 45.5786V51.3076H127.98V50.4746C127.594 50.8033 127.169 51.0526 126.705 51.2226C126.251 51.3813 125.758 51.4606 125.226 51.4606ZM123.288 48.8596C123.288 49.3356 123.486 49.7266 123.883 50.0326C124.291 50.3273 124.812 50.4746 125.447 50.4746C125.957 50.4746 126.421 50.3953 126.841 50.2366C127.26 50.078 127.64 49.8286 127.98 49.4886V47.8906C127.628 47.6526 127.254 47.4826 126.858 47.3806C126.461 47.2673 126.013 47.2106 125.515 47.2106C124.835 47.2106 124.291 47.3636 123.883 47.6696C123.486 47.9643 123.288 48.361 123.288 48.8596ZM138.307 51.4776C137.57 51.4776 137.003 51.302 136.607 50.9506C136.21 50.5993 136.012 50.0893 136.012 49.4206V43.8616H134.176V42.7906H136.012V40.6316L137.253 40.3086V42.7906H139.82V43.8616H137.253V49.0976C137.253 49.551 137.355 49.8796 137.559 50.0836C137.763 50.2763 138.097 50.3726 138.562 50.3726C138.8 50.3726 139.009 50.3556 139.191 50.3216C139.383 50.2876 139.587 50.231 139.803 50.1516V51.2566C139.587 51.336 139.344 51.3926 139.072 51.4266C138.811 51.4606 138.556 51.4776 138.307 51.4776ZM144.431 51.4776C143.785 51.4776 143.212 51.3416 142.714 51.0696C142.215 50.7863 141.824 50.401 141.541 49.9136C141.269 49.415 141.133 48.837 141.133 48.1796V42.7906H142.374V47.9246C142.374 48.684 142.589 49.2846 143.02 49.7266C143.45 50.1573 144.028 50.3726 144.754 50.3726C145.264 50.3726 145.717 50.2593 146.114 50.0326C146.522 49.7946 146.85 49.466 147.1 49.0466V42.7906H148.358V51.3076H147.1V50.3216C146.431 51.0923 145.541 51.4776 144.431 51.4776ZM153.217 51.4776C152.514 51.4776 151.851 51.3643 151.228 51.1376C150.616 50.8996 150.083 50.571 149.63 50.1516L150.395 49.3356C150.791 49.6983 151.228 49.9816 151.704 50.1856C152.18 50.3783 152.667 50.4746 153.166 50.4746C153.846 50.4746 154.401 50.333 154.832 50.0496C155.262 49.7663 155.478 49.398 155.478 48.9446C155.478 48.5706 155.347 48.2816 155.087 48.0776C154.837 47.8623 154.441 47.715 153.897 47.6356L152.418 47.4316C151.568 47.307 150.933 47.052 150.514 46.6666C150.106 46.2813 149.902 45.76 149.902 45.1026C149.902 44.6266 150.038 44.2016 150.31 43.8276C150.582 43.4536 150.956 43.159 151.432 42.9436C151.919 42.7283 152.474 42.6206 153.098 42.6206C153.721 42.6206 154.305 42.7113 154.849 42.8926C155.393 43.0739 155.925 43.3573 156.447 43.7426L155.784 44.5926C155.308 44.264 154.843 44.026 154.39 43.8786C153.948 43.72 153.494 43.6406 153.03 43.6406C152.44 43.6406 151.964 43.7709 151.602 44.0316C151.239 44.2923 151.058 44.6323 151.058 45.0516C151.058 45.437 151.182 45.7316 151.432 45.9356C151.681 46.1283 152.083 46.2643 152.639 46.3436L154.118 46.5476C154.968 46.661 155.602 46.9103 156.022 47.2956C156.452 47.681 156.668 48.208 156.668 48.8766C156.668 49.364 156.515 49.806 156.209 50.2026C155.903 50.5993 155.489 50.911 154.968 51.1376C154.458 51.3643 153.874 51.4776 153.217 51.4776ZM161.736 54.7756V42.7906H162.977V43.7086C163.714 43.006 164.632 42.6546 165.731 42.6546C166.536 42.6546 167.261 42.853 167.907 43.2496C168.553 43.635 169.063 44.1563 169.437 44.8136C169.822 45.471 170.015 46.2133 170.015 47.0406C170.015 47.868 169.822 48.616 169.437 49.2846C169.063 49.942 168.553 50.469 167.907 50.8656C167.261 51.251 166.53 51.4436 165.714 51.4436C165.215 51.4436 164.734 51.3586 164.269 51.1886C163.804 51.0186 163.379 50.775 162.994 50.4576V54.7756H161.736ZM165.612 50.3386C166.213 50.3386 166.751 50.197 167.227 49.9136C167.703 49.619 168.077 49.228 168.349 48.7406C168.632 48.242 168.774 47.681 168.774 47.0576C168.774 46.4343 168.632 45.8733 168.349 45.3746C168.077 44.876 167.703 44.485 167.227 44.2016C166.751 43.907 166.213 43.7596 165.612 43.7596C165.079 43.7596 164.581 43.8673 164.116 44.0826C163.663 44.2866 163.289 44.5756 162.994 44.9496V49.1656C163.289 49.5283 163.668 49.8173 164.133 50.0326C164.598 50.2366 165.091 50.3386 165.612 50.3386ZM174.532 51.4606C173.909 51.4606 173.359 51.353 172.883 51.1376C172.419 50.9223 172.05 50.622 171.778 50.2366C171.518 49.8513 171.387 49.4036 171.387 48.8936C171.387 48.089 171.693 47.4543 172.305 46.9896C172.917 46.525 173.745 46.2926 174.787 46.2926C175.705 46.2926 176.538 46.4853 177.286 46.8706V45.7486C177.286 45.0686 177.094 44.5586 176.708 44.2186C176.323 43.8673 175.762 43.6916 175.025 43.6916C174.606 43.6916 174.181 43.754 173.75 43.8786C173.331 43.992 172.866 44.179 172.356 44.4396L171.88 43.4706C172.492 43.176 173.059 42.9606 173.58 42.8246C174.102 42.6886 174.623 42.6206 175.144 42.6206C176.221 42.6206 177.048 42.8756 177.626 43.3856C178.216 43.8956 178.51 44.6266 178.51 45.5786V51.3076H177.286V50.4746C176.901 50.8033 176.476 51.0526 176.011 51.2226C175.558 51.3813 175.065 51.4606 174.532 51.4606ZM172.594 48.8596C172.594 49.3356 172.793 49.7266 173.189 50.0326C173.597 50.3273 174.119 50.4746 174.753 50.4746C175.263 50.4746 175.728 50.3953 176.147 50.2366C176.567 50.078 176.946 49.8286 177.286 49.4886V47.8906C176.935 47.6526 176.561 47.4826 176.164 47.3806C175.768 47.2673 175.32 47.2106 174.821 47.2106C174.141 47.2106 173.597 47.3636 173.189 47.6696C172.793 47.9643 172.594 48.361 172.594 48.8596ZM184.76 54.9456C184.171 54.9456 183.587 54.8663 183.009 54.7076C182.431 54.5603 181.904 54.345 181.428 54.0616L181.972 53.0756C182.482 53.3476 182.952 53.546 183.383 53.6706C183.825 53.7953 184.267 53.8576 184.709 53.8576C185.514 53.8576 186.126 53.665 186.545 53.2796C186.964 52.8943 187.174 52.3276 187.174 51.5796V50.3896C186.392 51.047 185.491 51.3756 184.471 51.3756C183.689 51.3756 182.975 51.183 182.329 50.7976C181.683 50.4123 181.167 49.891 180.782 49.2336C180.408 48.565 180.221 47.8226 180.221 47.0066C180.221 46.1906 180.408 45.454 180.782 44.7966C181.167 44.128 181.683 43.601 182.329 43.2156C182.975 42.8303 183.7 42.6376 184.505 42.6376C184.992 42.6376 185.463 42.7226 185.916 42.8926C186.381 43.0626 186.806 43.312 187.191 43.6406V42.7906H188.432V51.5626C188.432 52.6506 188.115 53.4836 187.48 54.0616C186.845 54.651 185.939 54.9456 184.76 54.9456ZM184.573 50.2706C185.117 50.2706 185.616 50.1686 186.069 49.9646C186.522 49.7606 186.891 49.4716 187.174 49.0976V44.9156C186.891 44.553 186.517 44.2696 186.052 44.0656C185.599 43.8616 185.106 43.7596 184.573 43.7596C183.984 43.7596 183.451 43.9013 182.975 44.1846C182.51 44.468 182.142 44.859 181.87 45.3576C181.598 45.845 181.462 46.3946 181.462 47.0066C181.462 47.6186 181.598 48.174 181.87 48.6726C182.153 49.16 182.527 49.551 182.992 49.8456C183.468 50.129 183.995 50.2706 184.573 50.2706ZM194.534 51.4776C193.729 51.4776 192.993 51.285 192.324 50.8996C191.667 50.503 191.145 49.9703 190.76 49.3016C190.375 48.633 190.182 47.885 190.182 47.0576C190.182 46.2303 190.375 45.4823 190.76 44.8136C191.145 44.145 191.667 43.618 192.324 43.2326C192.993 42.8359 193.729 42.6376 194.534 42.6376C195.35 42.6376 196.087 42.8359 196.744 43.2326C197.401 43.618 197.923 44.145 198.308 44.8136C198.693 45.4823 198.886 46.2303 198.886 47.0576C198.886 47.885 198.693 48.633 198.308 49.3016C197.923 49.9703 197.401 50.503 196.744 50.8996C196.087 51.285 195.35 51.4776 194.534 51.4776ZM194.534 50.3556C195.112 50.3556 195.633 50.2083 196.098 49.9136C196.574 49.619 196.948 49.2223 197.22 48.7236C197.503 48.225 197.645 47.6696 197.645 47.0576C197.645 46.4343 197.503 45.879 197.22 45.3916C196.948 44.893 196.574 44.4963 196.098 44.2016C195.633 43.907 195.112 43.7596 194.534 43.7596C193.956 43.7596 193.429 43.907 192.953 44.2016C192.488 44.4963 192.114 44.893 191.831 45.3916C191.559 45.879 191.423 46.4343 191.423 47.0576C191.423 47.6696 191.559 48.225 191.831 48.7236C192.114 49.2223 192.488 49.619 192.953 49.9136C193.429 50.2083 193.956 50.3556 194.534 50.3556ZM203.354 51.4776C202.651 51.4776 201.988 51.3643 201.365 51.1376C200.753 50.8996 200.22 50.571 199.767 50.1516L200.532 49.3356C200.928 49.6983 201.365 49.9816 201.841 50.1856C202.317 50.3783 202.804 50.4746 203.303 50.4746C203.983 50.4746 204.538 50.333 204.969 50.0496C205.399 49.7663 205.615 49.398 205.615 48.9446C205.615 48.5706 205.484 48.2816 205.224 48.0776C204.974 47.8623 204.578 47.715 204.034 47.6356L202.555 47.4316C201.705 47.307 201.07 47.052 200.651 46.6666C200.243 46.2813 200.039 45.76 200.039 45.1026C200.039 44.6266 200.175 44.2016 200.447 43.8276C200.719 43.4536 201.093 43.159 201.569 42.9436C202.056 42.7283 202.611 42.6206 203.235 42.6206C203.858 42.6206 204.442 42.7113 204.986 42.8926C205.53 43.0739 206.062 43.3573 206.584 43.7426L205.921 44.5926C205.445 44.264 204.98 44.026 204.527 43.8786C204.085 43.72 203.631 43.6406 203.167 43.6406C202.577 43.6406 202.101 43.7709 201.739 44.0316C201.376 44.2923 201.195 44.6323 201.195 45.0516C201.195 45.437 201.319 45.7316 201.569 45.9356C201.818 46.1283 202.22 46.2643 202.776 46.3436L204.255 46.5476C205.105 46.661 205.739 46.9103 206.159 47.2956C206.589 47.681 206.805 48.208 206.805 48.8766C206.805 49.364 206.652 49.806 206.346 50.2026C206.04 50.5993 205.626 50.911 205.105 51.1376C204.595 51.3643 204.011 51.4776 203.354 51.4776ZM215.868 51.4606C215.052 51.4606 214.309 51.268 213.641 50.8826C212.983 50.486 212.456 49.9533 212.06 49.2846C211.674 48.616 211.482 47.868 211.482 47.0406C211.482 46.2246 211.669 45.488 212.043 44.8306C212.417 44.162 212.921 43.635 213.556 43.2496C214.19 42.853 214.899 42.6546 215.681 42.6546C216.44 42.6546 217.12 42.853 217.721 43.2496C218.333 43.635 218.814 44.162 219.166 44.8306C219.528 45.488 219.71 46.2246 219.71 47.0406V47.4316H212.723C212.791 47.987 212.966 48.4856 213.25 48.9276C213.544 49.3696 213.924 49.721 214.389 49.9816C214.853 50.231 215.363 50.3556 215.919 50.3556C216.361 50.3556 216.791 50.2876 217.211 50.1516C217.63 50.0156 217.981 49.823 218.265 49.5736L219.047 50.4066C218.571 50.758 218.072 51.0243 217.551 51.2056C217.041 51.3756 216.48 51.4606 215.868 51.4606ZM212.757 46.4286H218.452C218.384 45.9186 218.214 45.4653 217.942 45.0686C217.681 44.6606 217.352 44.3433 216.956 44.1166C216.559 43.8786 216.123 43.7596 215.647 43.7596C215.159 43.7596 214.712 43.8729 214.304 44.0996C213.896 44.3263 213.556 44.6436 213.284 45.0516C213.012 45.4483 212.836 45.9073 212.757 46.4286ZM221.468 51.3076V42.7906H222.726V43.7936C223.395 43.0116 224.29 42.6206 225.412 42.6206C226.058 42.6206 226.625 42.7623 227.112 43.0456C227.611 43.3176 227.996 43.703 228.268 44.2016C228.552 44.689 228.693 45.2613 228.693 45.9186V51.3076H227.452V46.1736C227.452 45.4143 227.237 44.8193 226.806 44.3886C226.387 43.9466 225.809 43.7256 225.072 43.7256C224.562 43.7256 224.109 43.839 223.712 44.0656C223.316 44.2923 222.987 44.6153 222.726 45.0346V51.3076H221.468ZM234.451 51.3076V39.4076L235.709 39.1186V51.3076H234.451ZM237.854 51.3076V42.7906H239.112V51.3076H237.854ZM237.395 41.1076L238.993 39.1356H240.608L238.5 41.1076H237.395ZM241.258 51.3076V42.7906H242.516V43.7936C243.184 43.0116 244.08 42.6206 245.202 42.6206C245.848 42.6206 246.414 42.7623 246.902 43.0456C247.4 43.3176 247.786 43.703 248.058 44.2016C248.341 44.689 248.483 45.2613 248.483 45.9186V51.3076H247.242V46.1736C247.242 45.4143 247.026 44.8193 246.596 44.3886C246.176 43.9466 245.598 43.7256 244.862 43.7256C244.352 43.7256 243.898 43.839 243.502 44.0656C243.105 44.2923 242.776 44.6153 242.516 45.0346V51.3076H241.258ZM254.583 51.4606C253.767 51.4606 253.024 51.268 252.356 50.8826C251.698 50.486 251.171 49.9533 250.775 49.2846C250.389 48.616 250.197 47.868 250.197 47.0406C250.197 46.2246 250.384 45.488 250.758 44.8306C251.132 44.162 251.636 43.635 252.271 43.2496C252.905 42.853 253.614 42.6546 254.396 42.6546C255.155 42.6546 255.835 42.853 256.436 43.2496C257.048 43.635 257.529 44.162 257.881 44.8306C258.243 45.488 258.425 46.2246 258.425 47.0406V47.4316H251.438C251.506 47.987 251.681 48.4856 251.965 48.9276C252.259 49.3696 252.639 49.721 253.104 49.9816C253.568 50.231 254.078 50.3556 254.634 50.3556C255.076 50.3556 255.506 50.2876 255.926 50.1516C256.345 50.0156 256.696 49.823 256.98 49.5736L257.762 50.4066C257.286 50.758 256.787 51.0243 256.266 51.2056C255.756 51.3756 255.195 51.4606 254.583 51.4606ZM251.472 46.4286H257.167C257.099 45.9186 256.929 45.4653 256.657 45.0686C256.396 44.6606 256.067 44.3433 255.671 44.1166C255.274 43.8786 254.838 43.7596 254.362 43.7596C253.874 43.7596 253.427 43.8729 253.019 44.0996C252.611 44.3263 252.271 44.6436 251.999 45.0516C251.727 45.4483 251.551 45.9073 251.472 46.4286ZM262.703 51.4606C262.08 51.4606 261.53 51.353 261.054 51.1376C260.59 50.9223 260.221 50.622 259.949 50.2366C259.689 49.8513 259.558 49.4036 259.558 48.8936C259.558 48.089 259.864 47.4543 260.476 46.9896C261.088 46.525 261.916 46.2926 262.958 46.2926C263.876 46.2926 264.709 46.4853 265.457 46.8706V45.7486C265.457 45.0686 265.265 44.5586 264.879 44.2186C264.494 43.8673 263.933 43.6916 263.196 43.6916C262.777 43.6916 262.352 43.754 261.921 43.8786C261.502 43.992 261.037 44.179 260.527 44.4396L260.051 43.4706C260.663 43.176 261.23 42.9606 261.751 42.8246C262.273 42.6886 262.794 42.6206 263.315 42.6206C264.392 42.6206 265.219 42.8756 265.797 43.3856C266.387 43.8956 266.681 44.6266 266.681 45.5786V51.3076H265.457V50.4746C265.072 50.8033 264.647 51.0526 264.182 51.2226C263.729 51.3813 263.236 51.4606 262.703 51.4606ZM260.765 48.8596C260.765 49.3356 260.964 49.7266 261.36 50.0326C261.768 50.3273 262.29 50.4746 262.924 50.4746C263.434 50.4746 263.899 50.3953 264.318 50.2366C264.738 50.078 265.117 49.8286 265.457 49.4886V47.8906C265.106 47.6526 264.732 47.4826 264.335 47.3806C263.939 47.2673 263.491 47.2106 262.992 47.2106C262.312 47.2106 261.768 47.3636 261.36 47.6696C260.964 47.9643 260.765 48.361 260.765 48.8596Z" fill="#065EA6"/>
<path d="M36.0367 68.6916C45.0451 68.6916 52.3479 61.3889 52.3479 52.3805C52.3479 43.3721 45.0451 36.0693 36.0367 36.0693C27.0283 36.0693 19.7256 43.3721 19.7256 52.3805C19.7256 61.3889 27.0283 68.6916 36.0367 68.6916Z" fill="#FFB300"/>
<path d="M23.4006 63.7857C21.1639 63.1199 19.019 61.9689 17.0015 60.818C14.6324 59.4657 12.3652 57.9277 10.1999 56.2606C7.75433 54.3768 5.40052 52.3639 3.72431 49.7213C1.14633 45.6491 0.601179 40.8853 0.626654 36.1473C0.641938 33.1848 0.703076 30.2222 0.703076 27.2597V18.4546L0.387196 18.7746C2.257 18.6507 4.12681 18.3307 5.95585 17.9488C9.91454 17.1282 13.8274 15.8688 17.409 13.9592C19.6406 12.7721 21.7295 11.3063 23.5381 9.52053C23.8336 9.2315 23.3802 8.77215 23.0898 9.06634C17.6281 14.465 9.66489 16.9527 2.25191 17.9282C1.63543 18.0108 1.01386 18.0882 0.392291 18.1243C0.219067 18.1346 0.0764112 18.2637 0.0764112 18.4443C0.0764112 24.0184 0.101885 29.5874 0.0101783 35.1615C-0.0662442 39.8169 0.244541 44.5498 2.43532 48.7407C3.78036 51.311 5.71639 53.4116 7.92755 55.2439C10.1387 57.0761 12.6505 58.9186 15.1928 60.4773C17.7351 62.036 20.4048 63.5586 23.2324 64.3947C23.6247 64.5134 23.7929 63.8889 23.4006 63.7702V63.7857Z" fill="url(#paint0_radial_141_4336)"/>
<path d="M23.39 64.41C25.6775 63.7339 27.8785 62.5519 29.9368 61.3752C32.3722 59.9816 34.7056 58.3971 36.9219 56.6733C39.2909 54.8359 41.5531 52.8953 43.2293 50.3663C45.8989 46.3354 46.6071 41.5612 46.6224 36.8026C46.6326 33.6955 46.546 30.5885 46.546 27.4814C46.546 24.3743 46.546 21.4634 46.546 18.4596C46.546 18.2789 46.3982 18.1499 46.2301 18.1396C44.4418 18.0209 42.6484 17.7112 40.8958 17.3499C37.0237 16.5551 33.1975 15.3422 29.6821 13.4945C27.4404 12.3125 25.3413 10.8674 23.5275 9.07645C23.232 8.78742 22.7837 9.24161 23.0792 9.53064C28.6478 15.0325 36.7282 17.5667 44.289 18.5731C44.936 18.6609 45.5831 18.7383 46.2352 18.7847L45.9193 18.4647C45.9193 23.8221 45.8633 29.1846 45.9703 34.5368C46.062 39.1613 45.9091 43.8941 43.8101 48.1057C42.5262 50.6863 40.636 52.8127 38.4452 54.6449C36.1271 56.5804 33.6815 58.361 31.1137 59.9404C28.5459 61.5197 25.9985 62.97 23.2218 63.7958C22.8295 63.9145 22.9977 64.5338 23.39 64.4203V64.41Z" fill="url(#paint1_radial_141_4336)"/>
<path d="M26.4838 32.4468C25.256 31.8016 23.8753 31.3732 22.6016 31.3732C20.8387 31.3732 19.672 32.2352 19.672 33.5409C19.672 34.9396 20.3496 35.43 23.1926 36.3796C26.3106 37.3706 27.2022 38.2273 27.2022 39.817C27.2022 41.5357 25.7196 42.697 23.4677 42.697H23.1263V44.0079H22.7035V42.6763C21.068 42.5473 19.7739 41.9434 18.6123 40.7202L18.8874 40.4002C20.0949 41.7112 21.7507 42.2686 23.4677 42.2686C25.4598 42.2686 26.7742 41.2776 26.7742 39.817C26.7742 38.3564 26.0508 37.7319 23.0601 36.7461C20.2579 35.8016 19.2441 35.3267 19.2441 33.5461C19.2441 31.9977 20.5789 30.9655 22.5965 30.9655H22.7035V29.3965H23.1263V30.9861C24.3338 31.0945 25.5871 31.5229 26.6672 32.101L26.4787 32.4468H26.4838Z" fill="url(#paint2_radial_141_4336)"/>
<path d="M26.581 32.2761C24.8946 31.4142 22.5918 30.6555 20.7729 31.5587C19.6826 32.1006 19.1477 33.4322 19.6826 34.5728C20.2736 35.8373 22.1995 36.2451 23.3713 36.627C24.7112 37.0709 26.7237 37.6644 26.9886 39.3211C27.1364 40.2502 26.8154 41.1637 26.0715 41.7366C25.2258 42.3921 24.1661 42.4901 23.142 42.4901C23.0401 42.4901 22.9484 42.5779 22.9484 42.6863V43.9972L23.142 43.8011H22.7191L22.9127 43.9972V42.6656C22.9127 42.5521 22.8261 42.4798 22.7191 42.4695C21.1652 42.325 19.8558 41.6953 18.7605 40.5702V40.8437L19.0356 40.5237H18.7656C20.1717 41.9947 22.2657 42.6811 24.268 42.3972C25.7404 42.1856 27.0701 41.2256 26.9784 39.5947C26.9071 38.3044 25.9595 37.6644 24.8692 37.1947C23.9215 36.787 22.928 36.5031 21.9651 36.1418C21.2162 35.8631 20.2838 35.5431 19.7998 34.8515C19.3158 34.1599 19.3362 33.0812 19.7743 32.3948C20.401 31.409 21.6441 31.1509 22.7242 31.1509C22.8261 31.1509 22.9178 31.0632 22.9178 30.9548V29.3858L22.7242 29.5819H23.1471L22.9535 29.3858V30.9754C22.9535 31.089 23.0401 31.1561 23.1471 31.1716C24.3648 31.3006 25.5111 31.698 26.5912 32.2606L26.525 31.9974L26.3365 32.3432C26.2142 32.5599 26.5454 32.7561 26.6676 32.5393L26.8561 32.1935C26.9071 32.1058 26.8816 31.9767 26.7899 31.9303C25.6487 31.3316 24.4361 30.9187 23.1522 30.7845L23.3458 30.9806V29.3909C23.3458 29.2877 23.2592 29.1948 23.1522 29.1948H22.7293C22.6274 29.1948 22.5357 29.2826 22.5357 29.3909V30.96L22.7293 30.7638C21.3283 30.7638 19.6673 31.2438 19.1986 32.7561C18.842 33.907 19.2445 35.1096 20.2329 35.7547C21.7919 36.7715 23.7432 36.9573 25.3685 37.8554C25.9034 38.1496 26.3874 38.5366 26.5454 39.156C26.739 39.9353 26.5454 40.7715 25.934 41.3031C24.9914 42.134 23.5394 42.165 22.3727 41.9792C21.0939 41.7727 19.9526 41.1947 19.0509 40.2502C18.9846 40.1779 18.8471 40.1728 18.7808 40.2502L18.5057 40.5702C18.4395 40.6476 18.4293 40.7663 18.5057 40.8437C19.6775 42.0411 21.0786 42.7018 22.7344 42.8566L22.5408 42.6605V43.9921C22.5408 44.0953 22.6274 44.1882 22.7344 44.1882H23.1573C23.2592 44.1882 23.3509 44.1004 23.3509 43.9921V42.6811L23.1573 42.8772C24.5482 42.8772 26.1072 42.6243 26.953 41.3753C27.5847 40.4463 27.6 39.0476 26.9173 38.1392C25.9696 36.8747 24.1304 36.4825 22.7395 35.9973C21.4913 35.5638 19.81 35.0786 19.8915 33.4528C19.9526 32.2141 21.1448 31.6516 22.23 31.5638C23.6821 31.4503 25.1341 31.9458 26.4129 32.5961C26.632 32.7096 26.8256 32.3741 26.6065 32.2606L26.581 32.2761Z" fill="url(#paint3_radial_141_4336)"/>
<path d="M22.9072 51.9251C17.2264 51.8942 11.9533 48.6065 9.42116 43.4401C6.85846 38.2066 7.55645 31.7344 11.1687 27.1822C14.7809 22.63 20.7062 20.55 26.2953 21.861C31.7162 23.1307 36.1028 27.4713 37.4784 32.9318C39.2871 40.1163 35.5882 47.6052 28.97 50.6452C28.5981 50.8155 28.9191 51.3729 29.291 51.2026C35.4201 48.3897 39.2209 41.804 38.4872 35.0015C37.8503 29.0919 33.9069 23.941 28.4198 21.8404C22.9327 19.7397 16.3654 21.0713 12.0654 25.2416C7.74496 29.4325 6.13499 35.9615 8.04046 41.7162C9.90517 47.3626 14.8879 51.5897 20.7113 52.4155C21.4399 52.5187 22.1735 52.5703 22.9072 52.5755C23.3148 52.5755 23.3199 51.9303 22.9072 51.9303V51.9251Z" fill="url(#paint4_radial_141_4336)"/>
<path d="M14.0271 28.5704C17.4916 24.7614 23.0602 23.4918 27.7577 25.613C31.803 27.4401 34.595 31.4968 34.8548 35.9819C35.1146 40.467 32.7761 44.9315 28.8735 47.2128C24.9351 49.5147 19.9167 49.3082 16.1618 46.7224C11.5561 43.5483 9.79329 37.489 11.7701 32.2452C11.9178 31.8581 11.3014 31.6878 11.1536 32.0749C9.2991 36.9884 10.5983 42.6709 14.4704 46.196C18.0367 49.4372 23.2539 50.3714 27.6915 48.5185C32.0221 46.707 35.0637 42.5109 35.4611 37.7832C35.8636 32.9832 33.4741 28.2607 29.4084 25.7679C24.2983 22.6401 17.5986 23.693 13.5737 28.1214C13.2985 28.4259 13.7469 28.8852 14.022 28.5756L14.0271 28.5704Z" fill="url(#paint5_radial_141_4336)"/>
<path d="M18.6138 8.19896C19.3847 8.19896 20.0097 7.56581 20.0097 6.78478C20.0097 6.00375 19.3847 5.37061 18.6138 5.37061C17.8428 5.37061 17.2178 6.00375 17.2178 6.78478C17.2178 7.56581 17.8428 8.19896 18.6138 8.19896Z" fill="url(#paint6_radial_141_4336)"/>
<path d="M27.8452 8.19896C28.6162 8.19896 29.2412 7.56581 29.2412 6.78478C29.2412 6.00375 28.6162 5.37061 27.8452 5.37061C27.0742 5.37061 26.4492 6.00375 26.4492 6.78478C26.4492 7.56581 27.0742 8.19896 27.8452 8.19896Z" fill="url(#paint7_radial_141_4336)"/>
<path d="M23.229 3.13597C24 3.13597 24.625 2.50282 24.625 1.72179C24.625 0.940766 24 0.307617 23.229 0.307617C22.458 0.307617 21.833 0.940766 21.833 1.72179C21.833 2.50282 22.458 3.13597 23.229 3.13597Z" fill="url(#paint8_radial_141_4336)"/>
<defs>
<radialGradient id="paint0_radial_141_4336" cx="0" cy="0" r="1" gradientUnits="userSpaceOnUse" gradientTransform="translate(11.8149 36.6996) scale(20.8328 21.1043)">
<stop stop-color="#0F5BAD"/>
<stop offset="0.28" stop-color="#0B5097"/>
<stop offset="0.84" stop-color="#023560"/>
<stop offset="1" stop-color="#002D4F"/>
</radialGradient>
<radialGradient id="paint1_radial_141_4336" cx="0" cy="0" r="1" gradientUnits="userSpaceOnUse" gradientTransform="translate(34.8024 36.6993) scale(20.8379 21.1094)">
<stop stop-color="#0F5BAD"/>
<stop offset="0.28" stop-color="#0B5097"/>
<stop offset="0.84" stop-color="#023560"/>
<stop offset="1" stop-color="#002D4F"/>
</radialGradient>
<radialGradient id="paint2_radial_141_4336" cx="0" cy="0" r="1" gradientUnits="userSpaceOnUse" gradientTransform="translate(22.9073 36.6996) scale(5.93548 6.01283)">
<stop stop-color="#0F5BAD"/>
<stop offset="0.28" stop-color="#0B5097"/>
<stop offset="0.84" stop-color="#023560"/>
<stop offset="1" stop-color="#002D4F"/>
</radialGradient>
<radialGradient id="paint3_radial_141_4336" cx="0" cy="0" r="1" gradientUnits="userSpaceOnUse" gradientTransform="translate(22.9026 36.6992) scale(5.97624 6.05412)">
<stop stop-color="#0F5BAD"/>
<stop offset="0.28" stop-color="#0B5097"/>
<stop offset="0.84" stop-color="#023560"/>
<stop offset="1" stop-color="#002D4F"/>
</radialGradient>
<radialGradient id="paint4_radial_141_4336" cx="0" cy="0" r="1" gradientUnits="userSpaceOnUse" gradientTransform="translate(22.9123 36.7047) scale(15.4119 15.6127)">
<stop stop-color="#0F5BAD"/>
<stop offset="0.28" stop-color="#0B5097"/>
<stop offset="0.84" stop-color="#023560"/>
<stop offset="1" stop-color="#002D4F"/>
</radialGradient>
<radialGradient id="paint5_radial_141_4336" cx="0" cy="0" r="1" gradientUnits="userSpaceOnUse" gradientTransform="translate(22.9176 36.7045) scale(12.3397 12.5005)">
<stop stop-color="#0F5BAD"/>
<stop offset="0.28" stop-color="#0B5097"/>
<stop offset="0.84" stop-color="#023560"/>
<stop offset="1" stop-color="#002D4F"/>
</radialGradient>
<radialGradient id="paint6_radial_141_4336" cx="0" cy="0" r="1" gradientUnits="userSpaceOnUse" gradientTransform="translate(18.5873 6.77606) rotate(31.59) scale(1.40091 1.40921)">
<stop stop-color="#0F5BAD"/>
<stop offset="0.28" stop-color="#0B5097"/>
<stop offset="0.84" stop-color="#023560"/>
<stop offset="1" stop-color="#002D4F"/>
</radialGradient>
<radialGradient id="paint7_radial_141_4336" cx="0" cy="0" r="1" gradientUnits="userSpaceOnUse" gradientTransform="translate(27.8183 6.7775) rotate(31.59) scale(1.40091 1.40921)">
<stop stop-color="#0F5BAD"/>
<stop offset="0.28" stop-color="#0B5097"/>
<stop offset="0.84" stop-color="#023560"/>
<stop offset="1" stop-color="#002D4F"/>
</radialGradient>
<radialGradient id="paint8_radial_141_4336" cx="0" cy="0" r="1" gradientUnits="userSpaceOnUse" gradientTransform="translate(23.2032 1.71786) rotate(31.59) scale(1.40091 1.40921)">
<stop stop-color="#0F5BAD"/>
<stop offset="0.28" stop-color="#0B5097"/>
<stop offset="0.84" stop-color="#023560"/>
<stop offset="1" stop-color="#002D4F"/>
</radialGradient>
</defs>
</svg>
