<svg width="349" height="56" viewBox="0 0 349 56" fill="none" xmlns="http://www.w3.org/2000/svg">
<line x1="251.304" y1="27" x2="293.707" y2="27" stroke="#969696" stroke-width="2"/>
<line x1="54" y1="27" x2="98" y2="27" stroke="#065EA6" stroke-width="2"/>
<line x1="152" y1="27" x2="197" y2="27" stroke="#065EA6" stroke-width="2"/>
<line x1="151.996" y1="27.0859" x2="175.136" y2="27.0001" stroke="#065EA6" stroke-width="2"/>
<circle cx="27.5947" cy="27.5947" r="26.5947" stroke="#065EA6" stroke-width="2"/>
<path d="M15.3384 28.4949V40.858H38.519V28.4949" stroke="#005AAB" stroke-width="0.574169" stroke-linecap="round" stroke-linejoin="round"/>
<path d="M24.7136 29.5251H18.2231V40.8581H24.7136V29.5251Z" stroke="#005AAB" stroke-width="0.574169" stroke-linecap="round" stroke-linejoin="round"/>
<path d="M34.7063 30.761H28.6792V36.7881H34.7063V30.761Z" stroke="#005AAB" stroke-width="0.574169" stroke-linecap="round" stroke-linejoin="round"/>
<path d="M41.5069 23.3788H12.4536L17.9653 14.5701H36.1608L41.5069 23.3788Z" stroke="#005AAB" stroke-width="0.574169" stroke-linecap="round" stroke-linejoin="round"/>
<path d="M12.3564 24.0742C12.3564 25.5677 13.6373 26.7786 15.217 26.7786C16.7966 26.7786 18.0775 25.5677 18.0775 24.0742C18.0775 23.8336 18.0439 23.6008 17.9818 23.3787H12.4527C12.3906 23.6008 12.357 23.8336 12.357 24.0742H12.3564Z" stroke="#005AAB" stroke-width="0.574169" stroke-linecap="round" stroke-linejoin="round"/>
<path d="M18.1177 24.0742C18.1177 25.5677 19.4187 26.7786 21.0229 26.7786C22.6272 26.7786 23.9282 25.5677 23.9282 24.0742C23.9282 23.8336 23.8941 23.6008 23.8309 23.3787H18.215C18.1518 23.6008 18.1177 23.8336 18.1177 24.0742Z" stroke="#005AAB" stroke-width="0.574169" stroke-linecap="round" stroke-linejoin="round"/>
<path d="M23.957 24.0742C23.957 25.5677 25.258 26.7786 26.8623 26.7786C28.4666 26.7786 29.7676 25.5677 29.7676 24.0742C29.7676 23.8336 29.7334 23.6008 29.6702 23.3787H24.0544C23.9912 23.6008 23.957 23.8336 23.957 24.0742Z" stroke="#005AAB" stroke-width="0.574169" stroke-linecap="round" stroke-linejoin="round"/>
<path d="M29.8311 24.0742C29.8311 25.5677 31.1321 26.7786 32.7363 26.7786C34.3406 26.7786 35.6416 25.5677 35.6416 24.0742C35.6416 23.8336 35.6075 23.6008 35.5442 23.3787H29.9284C29.8652 23.6008 29.8311 23.8336 29.8311 24.0742Z" stroke="#005AAB" stroke-width="0.574169" stroke-linecap="round" stroke-linejoin="round"/>
<path d="M35.8884 23.3787C35.8251 23.6008 35.791 23.8336 35.791 24.0742C35.791 25.5677 37.092 26.7786 38.6963 26.7786C40.3006 26.7786 41.6016 25.5677 41.6016 24.0742C41.6016 23.8336 41.5674 23.6008 41.5042 23.3787H35.8884Z" stroke="#005AAB" stroke-width="0.574169" stroke-linecap="round" stroke-linejoin="round"/>
<path d="M21.6366 14.6978L18.0767 23.3789" stroke="#005AAB" stroke-width="0.574169" stroke-linecap="round" stroke-linejoin="round"/>
<path d="M25.1458 14.7932L23.9287 23.3787" stroke="#005AAB" stroke-width="0.574169" stroke-linecap="round" stroke-linejoin="round"/>
<path d="M28.833 14.7932L29.7753 23.3787" stroke="#005AAB" stroke-width="0.574169" stroke-linecap="round" stroke-linejoin="round"/>
<path d="M32.5195 14.7932L35.7135 23.3787" stroke="#005AAB" stroke-width="0.574169" stroke-linecap="round" stroke-linejoin="round"/>
<path d="M31.6938 12.4067H22.7563V14.57H31.6938V12.4067Z" stroke="#005AAB" stroke-width="0.574169" stroke-linecap="round" stroke-linejoin="round"/>
<path d="M12.4084 13.1147C12.7162 13.1147 12.9657 12.8651 12.9657 12.5573C12.9657 12.2495 12.7162 12 12.4084 12C12.1006 12 11.8511 12.2495 11.8511 12.5573C11.8511 12.8651 12.1006 13.1147 12.4084 13.1147Z" fill="#005AAB"/>
<path d="M10.5573 16.2802C10.8651 16.2802 11.1147 16.0307 11.1147 15.7229C11.1147 15.4151 10.8651 15.1655 10.5573 15.1655C10.2495 15.1655 10 15.4151 10 15.7229C10 16.0307 10.2495 16.2802 10.5573 16.2802Z" fill="#005AAB"/>
<path d="M14.1535 16.2802C14.4613 16.2802 14.7108 16.0307 14.7108 15.7229C14.7108 15.4151 14.4613 15.1655 14.1535 15.1655C13.8457 15.1655 13.5962 15.4151 13.5962 15.7229C13.5962 16.0307 13.8457 16.2802 14.1535 16.2802Z" fill="#005AAB"/>
<path d="M37.5622 44.0001C41.496 44.0001 44.6849 40.8111 44.6849 36.8774C44.6849 32.9436 41.496 29.7546 37.5622 29.7546C33.6284 29.7546 30.4395 32.9436 30.4395 36.8774C30.4395 40.8111 33.6284 44.0001 37.5622 44.0001Z" fill="#FFB000"/>
<path d="M37.5612 43.1647C41.0336 43.1647 43.8485 40.3498 43.8485 36.8774C43.8485 33.405 41.0336 30.5901 37.5612 30.5901C34.0888 30.5901 31.2739 33.405 31.2739 36.8774C31.2739 40.3498 34.0888 43.1647 37.5612 43.1647Z" stroke="white" stroke-width="0.574169" stroke-linecap="round" stroke-linejoin="round"/>
<path d="M39.9009 34.8494C38.9239 35.7895 37.9273 36.7089 36.957 37.6557C36.698 37.908 36.5362 37.9606 36.2693 37.6624C35.9274 37.2802 35.524 36.9534 35.1547 36.5942C34.9129 36.3592 34.641 36.2646 34.3875 36.517C34.12 36.7828 34.1911 37.072 34.4563 37.3255C35.0271 37.8711 35.5928 38.4217 36.163 38.9679C36.2878 39.0876 36.4294 39.1839 36.609 39.2012C36.8121 39.1839 36.9548 39.063 37.093 38.9315C38.2614 37.8191 39.4292 36.7061 40.6015 35.5981C40.883 35.3318 41.0497 35.0302 40.7386 34.7135C40.4364 34.4057 40.1622 34.5999 39.9015 34.8506L39.9009 34.8494Z" fill="white"/>
<line x1="250.996" y1="27.0859" x2="274.136" y2="27.0001" stroke="#065EA6" stroke-width="2"/>
<circle cx="125.595" cy="27.5947" r="26.5947" stroke="#065EA6" stroke-width="2"/>
<path d="M120.967 19.2808C120.967 16.912 122.888 14.9914 125.257 14.9914C127.626 14.9914 129.546 16.912 129.546 19.2808V23.7429H132.692V19.4351C132.692 15.3289 129.363 12 125.257 12C121.151 12 117.822 15.3289 117.822 19.4351V23.7429H120.967V19.2808Z" stroke="#005AAB" stroke-width="0.574169" stroke-linecap="round" stroke-linejoin="round"/>
<path d="M129.547 19.2809C129.547 16.912 127.626 14.9915 125.257 14.9915C122.888 14.9915 120.968 16.912 120.968 19.2809V23.7429H129.547V19.2809Z" stroke="#005AAB" stroke-width="0.574169" stroke-linecap="round" stroke-linejoin="round"/>
<path d="M126.751 32.0289C126.751 31.2031 126.082 30.5332 125.255 30.5332C124.429 30.5332 123.76 31.2025 123.76 32.0289C123.76 32.578 124.057 33.0563 124.497 33.3163V35.4001C124.497 35.8188 124.836 36.158 125.255 36.158C125.674 36.158 126.013 35.8188 126.013 35.4001V33.3163C126.454 33.0563 126.75 32.578 126.75 32.0289H126.751Z" stroke="#005AAB" stroke-width="0.574169" stroke-linecap="round" stroke-linejoin="round"/>
<path d="M134.814 23.5378H115.696C114.546 23.5378 113.611 24.4728 113.611 25.6221V33.3808C113.748 33.3668 113.885 33.3574 114.021 33.3518V25.6221C114.021 24.6989 114.772 23.9477 115.696 23.9477H134.814C135.737 23.9477 136.488 24.6989 136.488 25.6221V39.892C136.488 40.7858 135.761 41.513 134.867 41.513H120.934C120.906 41.6511 120.873 41.7876 120.836 41.9229H134.867C135.987 41.9229 136.898 41.0119 136.898 39.8926V25.6227C136.898 24.4734 135.963 23.5384 134.813 23.5384L134.814 23.5378Z" fill="#005AAB"/>
<path d="M115.402 38.6309C116.517 38.6309 117.422 37.5683 117.422 36.2576C117.422 34.9468 116.517 33.8843 115.402 33.8843C114.286 33.8843 113.381 34.9468 113.381 36.2576C113.381 37.5683 114.286 38.6309 115.402 38.6309Z" stroke="#005AAB" stroke-width="0.574169" stroke-linecap="round" stroke-linejoin="round"/>
<path d="M113.866 38.8269C113.866 38.8269 111.14 40.3042 111.099 40.6166C111.057 40.929 110.928 42.2777 111.053 42.3607C111.178 42.4437 111.681 43.2594 115.407 43.3218" stroke="#005AAB" stroke-width="0.574169" stroke-linecap="round" stroke-linejoin="round"/>
<path d="M116.947 38.8269C116.947 38.8269 119.593 40.326 119.714 40.6166C119.905 41.0744 119.874 42.1858 119.707 42.3462C119.599 42.4503 119.132 43.2594 115.406 43.3218" stroke="#005AAB" stroke-width="0.574169" stroke-linecap="round" stroke-linejoin="round"/>
<path d="M113.821 15.3394C114.119 15.3394 114.36 15.0983 114.36 14.8009C114.36 14.5035 114.119 14.2625 113.821 14.2625C113.524 14.2625 113.283 14.5035 113.283 14.8009C113.283 15.0983 113.524 15.3394 113.821 15.3394Z" fill="#005AAB"/>
<path d="M112.034 18.3978C112.331 18.3978 112.572 18.1567 112.572 17.8593C112.572 17.5619 112.331 17.3208 112.034 17.3208C111.736 17.3208 111.495 17.5619 111.495 17.8593C111.495 18.1567 111.736 18.3978 112.034 18.3978Z" fill="#005AAB"/>
<path d="M115.509 18.3978C115.807 18.3978 116.048 18.1567 116.048 17.8593C116.048 17.5619 115.807 17.3208 115.509 17.3208C115.212 17.3208 114.971 17.5619 114.971 17.8593C114.971 18.1567 115.212 18.3978 115.509 18.3978Z" fill="#005AAB"/>
<path d="M137.168 44.0001C141.083 44.0001 144.256 40.8266 144.256 36.9119C144.256 32.9972 141.083 29.8237 137.168 29.8237C133.254 29.8237 130.08 32.9972 130.08 36.9119C130.08 40.8266 133.254 44.0001 137.168 44.0001Z" fill="#FFB000"/>
<path d="M137.168 43.1686C140.623 43.1686 143.425 40.3673 143.425 36.9118C143.425 33.4563 140.623 30.655 137.168 30.655C133.712 30.655 130.911 33.4563 130.911 36.9118C130.911 40.3673 133.712 43.1686 137.168 43.1686Z" stroke="white" stroke-width="0.574169" stroke-linecap="round" stroke-linejoin="round"/>
<path d="M139.495 34.8939C138.523 35.8294 137.531 36.7443 136.566 37.6865C136.308 37.9377 136.147 37.99 135.881 37.6932C135.541 37.3129 135.14 36.9877 134.772 36.6302C134.532 36.3963 134.261 36.3022 134.009 36.5533C133.743 36.8178 133.813 37.1057 134.077 37.358C134.645 37.9009 135.208 38.4489 135.776 38.9923C135.9 39.1115 136.041 39.2073 136.219 39.2246C136.422 39.2073 136.564 39.087 136.701 38.9562C137.864 37.8491 139.026 36.7416 140.193 35.639C140.473 35.3739 140.639 35.0738 140.329 34.7586C140.028 34.4523 139.755 34.6456 139.496 34.895L139.495 34.8939Z" fill="white"/>
<circle cx="223.594" cy="27.5947" r="26.5947" stroke="#065EA6" stroke-width="2"/>
<path d="M234.608 44.0001C230.828 44.0001 227.764 40.9357 227.764 37.1555C227.764 33.3753 230.828 30.3108 234.608 30.3108C238.389 30.3108 241.453 33.3753 241.453 37.1555C241.453 40.9357 238.389 44.0001 234.608 44.0001Z" fill="#FFB000"/>
<path d="M218.767 33.9108L214.099 30.5162V30.0269L219.44 33.9108H218.767Z" fill="#005AAB"/>
<path d="M219.633 34.3064H219.984L221.028 35.0652C221.697 35.5513 222.603 35.5626 223.283 35.0942L224.427 34.3064H224.964L225.034 34.3688L223.508 35.4201C222.689 35.9836 221.599 35.9696 220.796 35.3851L219.495 34.4393L219.604 34.3398C219.616 34.3296 219.625 34.3183 219.633 34.3059L219.633 34.3064Z" fill="#005AAB"/>
<path d="M210.967 42.2186L211.141 42.0589C211.521 42.3648 212.002 42.5482 212.527 42.5482H232.27C232.779 42.5482 233.248 42.3745 233.623 42.0842L233.779 42.2245C233.817 42.2584 233.864 42.275 233.911 42.275C233.966 42.275 234.019 42.253 234.059 42.2094C234.132 42.1282 234.125 42.003 234.044 41.9298L233.914 41.8131C234.266 41.4211 234.481 40.9039 234.481 40.3366V27.8625L231.094 30.1951V29.7149L234.306 27.5027L234.551 27.6544C234.583 27.6743 234.619 27.6839 234.655 27.6839C234.721 27.6839 234.786 27.6506 234.823 27.5904C234.881 27.4974 234.852 27.3753 234.759 27.3178L234.718 27.2925C234.736 27.2962 234.753 27.3022 234.77 27.3113C234.835 27.3457 234.876 27.4129 234.876 27.4866V40.3371C234.876 41.7744 233.706 42.9434 232.27 42.9434H212.527C211.849 42.9434 211.23 42.6826 210.766 42.2568C210.788 42.2648 210.81 42.2697 210.833 42.2697C210.881 42.2697 210.928 42.2525 210.967 42.218V42.2186Z" fill="#005AAB"/>
<path d="M209.92 27.4678C209.922 27.4732 209.925 27.4785 209.928 27.4834C209.986 27.5753 210.109 27.6027 210.201 27.5441L210.459 27.3801L213.703 29.7391V30.2284L210.316 27.7657V40.3376C210.316 40.8904 210.52 41.3959 210.857 41.7836L210.7 41.9261C210.639 41.9825 210.621 42.0686 210.649 42.1422C210.199 41.6733 209.921 41.0372 209.921 40.3371V27.4672L209.92 27.4678Z" fill="#005AAB"/>
<path d="M230.698 29.988V30.4682L225.699 33.9107H225.001L230.698 29.988Z" fill="#005AAB"/>
<path d="M225.123 34.3064H225.555L233.913 41.8141C233.824 41.9125 233.727 42.0028 233.622 42.0846L225.033 34.3693L225.124 34.3069L225.123 34.3064Z" fill="#005AAB"/>
<path d="M225.124 34.3064L225.033 34.3688L224.964 34.3064H225.124Z" fill="#005AAB"/>
<path d="M233.914 41.8137L234.043 41.9304C234.124 42.0035 234.131 42.1283 234.058 42.21C234.019 42.2536 233.965 42.2756 233.911 42.2756C233.864 42.2756 233.817 42.259 233.779 42.2251L233.622 42.0847C233.727 42.0035 233.825 41.9132 233.913 41.8143L233.914 41.8137Z" fill="#005AAB"/>
<path d="M210.766 42.2571C210.737 42.2464 210.709 42.2297 210.687 42.2055C210.67 42.1867 210.657 42.1652 210.648 42.1426C210.686 42.1818 210.725 42.2205 210.765 42.2577L210.766 42.2571Z" fill="#005AAB"/>
<path d="M219.311 34.3064L219.494 34.4392L211.141 42.0587C211.038 41.9754 210.943 41.8834 210.856 41.7834L219.053 34.3064H219.311H219.311Z" fill="#005AAB"/>
<path d="M219.603 34.3397L219.494 34.4392L219.311 34.3064H219.632C219.624 34.3182 219.615 34.3301 219.603 34.3403V34.3397Z" fill="#005AAB"/>
<path d="M210.701 41.9259L210.857 41.7834C210.944 41.8835 211.039 41.976 211.142 42.0588L210.967 42.2185C210.929 42.2529 210.882 42.2701 210.834 42.2701C210.811 42.2701 210.788 42.2652 210.766 42.2572C210.726 42.2201 210.687 42.1819 210.65 42.1421C210.622 42.0684 210.639 41.9819 210.701 41.9259Z" fill="#005AAB"/>
<path d="M222.895 20.4348C222.424 20.1434 221.819 20.1472 221.352 20.4445L220.275 21.1307H219.538L221.14 20.1106C221.734 19.732 222.505 19.7277 223.104 20.0982L224.77 21.1301H224.019L222.896 20.4343L222.895 20.4348Z" fill="#005AAB"/>
<path d="M234.567 27.3243L234.306 27.5033L231.094 25.5138V25.0481L234.719 27.2931C234.667 27.2823 234.612 27.2931 234.567 27.3237V27.3243Z" fill="#005AAB"/>
<path d="M210.459 27.38L210.234 27.2171C210.174 27.1735 210.095 27.1671 210.028 27.2009C209.962 27.2348 209.92 27.3026 209.92 27.3773V27.4682C209.874 27.3784 209.901 27.266 209.989 27.2106L213.703 24.8457V25.3146L210.458 27.38H210.459Z" fill="#005AAB"/>
<path d="M210.028 27.2003C210.094 27.1664 210.174 27.1729 210.234 27.2164L210.458 27.3794L210.201 27.5434C210.109 27.602 209.986 27.5751 209.928 27.4826C209.925 27.4778 209.922 27.4724 209.92 27.467V27.3761C209.92 27.3019 209.962 27.2336 210.028 27.1998L210.028 27.2003Z" fill="#005AAB"/>
<path d="M234.823 27.5913C234.786 27.6515 234.721 27.6849 234.655 27.6849C234.619 27.6849 234.583 27.6752 234.551 27.6553L234.306 27.5036L234.566 27.3246C234.611 27.2934 234.666 27.2832 234.718 27.2939L234.76 27.3192C234.853 27.3767 234.881 27.4988 234.824 27.5918L234.823 27.5913Z" fill="#005AAB"/>
<path d="M230.698 25.2686L231.094 25.5138V29.7155L230.698 29.9881V25.2686Z" fill="#005AAB"/>
<path d="M216.772 21.5264C215.298 21.5264 214.098 22.726 214.098 24.2005V24.5936L213.702 24.8452V24.2005C213.702 22.5077 215.079 21.1306 216.772 21.1306H219.537L218.915 21.5264H216.772H216.772Z" fill="#005AAB"/>
<path d="M230.698 24.2005C230.698 22.726 229.498 21.5264 228.024 21.5264H225.408L224.769 21.1306H228.023C229.716 21.1306 231.093 22.5077 231.093 24.2005V25.0479L230.697 24.8027V24.2005H230.698Z" fill="#005AAB"/>
<path d="M220.274 21.1306H224.018L224.657 21.5264H219.653L220.274 21.1306Z" fill="#005AAB"/>
<path d="M214.099 25.0625V30.0268L213.703 29.7391V25.3142L214.099 25.0625Z" fill="#005AAB"/>
<path d="M219.984 34.3064H219.632C219.684 34.2322 219.68 34.13 219.616 34.0606C219.542 33.98 219.417 33.974 219.336 34.0477L219.168 34.202L218.767 33.9111H219.44L219.984 34.3069V34.3064Z" fill="#005AAB"/>
<path d="M224.908 34.2554L224.964 34.306H224.427L224.879 33.9946C224.822 34.0753 224.833 34.1877 224.908 34.2554Z" fill="#005AAB"/>
<path d="M230.698 29.988L231.094 29.7153V30.1955L230.698 30.4681V29.988Z" fill="#005AAB"/>
<path d="M214.099 30.516L213.703 30.2283V29.739L214.099 30.0267V30.516Z" fill="#005AAB"/>
<path d="M224.993 33.9161L225.001 33.9102H225.698L225.368 34.1377L225.171 33.9607C225.121 33.9156 225.054 33.9011 224.992 33.9156L224.993 33.9161Z" fill="#005AAB"/>
<path d="M224.993 33.916L224.879 33.9945C224.883 33.9881 224.888 33.9816 224.893 33.9757C224.921 33.9451 224.956 33.9246 224.993 33.916Z" fill="#005AAB"/>
<path d="M225.556 34.3065H225.124L225.369 34.1382L225.556 34.3065Z" fill="#005AAB"/>
<path d="M224.907 34.2553C224.832 34.1876 224.822 34.0752 224.879 33.9946L224.993 33.916C225.054 33.901 225.121 33.916 225.172 33.9612L225.369 34.1381L225.125 34.3064H224.964L224.908 34.2559L224.907 34.2553Z" fill="#005AAB"/>
<path d="M219.053 34.3065L219.167 34.2017L219.311 34.3065H219.053Z" fill="#005AAB"/>
<path d="M219.616 34.0601C219.679 34.1295 219.684 34.2317 219.632 34.3059H219.311L219.167 34.2016L219.336 34.0472C219.417 33.9736 219.542 33.9795 219.616 34.0601Z" fill="#005AAB"/>
<path d="M219.652 21.5264H218.916L219.537 21.1306H220.274L219.652 21.5264Z" fill="#005AAB"/>
<path d="M214.099 25.0624L213.703 25.3141V24.8452L214.099 24.5935V25.0624Z" fill="#005AAB"/>
<path d="M230.698 25.2684V24.8027L231.094 25.0479V25.5136L230.698 25.2684Z" fill="#005AAB"/>
<path d="M224.657 21.5264L224.018 21.1306H224.769L225.408 21.5264H224.657Z" fill="#005AAB"/>
<path d="M216.797 18.5071L218.119 20.0967V18.5851C218.119 18.5179 218.174 18.4631 218.241 18.4631H219.449C219.873 18.4631 220.218 18.1178 220.218 17.6936V12.0136C220.218 11.5893 219.873 11.2441 219.449 11.2441H214.52V11H219.449C220.007 11 220.462 11.4549 220.462 12.0136V17.6936C220.462 18.2523 220.007 18.7072 219.449 18.7072H218.363V20.4343C218.363 20.486 218.331 20.5317 218.282 20.5489C218.269 20.5537 218.255 20.5564 218.241 20.5564C218.206 20.5564 218.171 20.5408 218.147 20.5123L216.646 18.7072H214.52V18.4631H216.703C216.739 18.4631 216.774 18.4792 216.797 18.5071H216.797Z" fill="#005AAB"/>
<path d="M209.013 11.0005H214.23V11.2446H209.013C208.589 11.2446 208.243 11.5898 208.243 12.0141V17.6941C208.243 18.1183 208.589 18.4635 209.013 18.4635H214.23V18.7077H209.013C208.454 18.7077 207.999 18.2528 207.999 17.6941V12.0141C207.999 11.4554 208.454 11.0005 209.013 11.0005Z" fill="#005AAB"/>
<path d="M211.129 16.222L211.091 15.1897L211.964 15.7434L212.189 15.3492L211.27 14.8706L212.189 14.392L211.964 13.9979L211.091 14.5516L211.129 13.5193H210.679L210.716 14.5516L209.843 13.9979L209.618 14.392L210.538 14.8706L209.618 15.3492L209.843 15.7434L210.716 15.1897L210.679 16.222H211.129Z" fill="#005AAB"/>
<path d="M214.453 16.222L214.415 15.1897L215.288 15.7434L215.513 15.3492L214.594 14.8706L215.513 14.392L215.288 13.9979L214.415 14.5516L214.453 13.5193H214.002L214.04 14.5516L213.167 13.9979L212.942 14.392L213.862 14.8706L212.942 15.3492L213.167 15.7434L214.04 15.1897L214.002 16.222H214.453Z" fill="#005AAB"/>
<path d="M217.777 16.222L217.739 15.1897L218.612 15.7434L218.837 15.3492L217.918 14.8706L218.837 14.392L218.612 13.9979L217.739 14.5516L217.777 13.5193H217.327L217.364 14.5516L216.491 13.9979L216.266 14.392L217.186 14.8706L216.266 15.3492L216.491 15.7434L217.364 15.1897L217.327 16.222H217.777Z" fill="#005AAB"/>
<path d="M223.896 28.3307C223.896 28.7775 224.037 28.9184 224.294 28.9184C224.724 28.9184 225.312 28.4883 225.328 27.1477C225.328 25.5173 224.22 24.4414 222.432 24.4414C220.644 24.4414 219.295 25.6824 219.295 27.5365C219.295 29.3906 220.495 30.4993 222.291 30.4993C223.085 30.4993 223.714 30.3257 224.293 30.0278L224.434 30.309C223.871 30.6564 223.102 30.8634 222.291 30.8634C220.272 30.8634 218.931 29.5309 218.931 27.5365C218.931 25.5421 220.396 24.1021 222.432 24.1021C224.468 24.1021 225.692 25.335 225.692 27.1477C225.676 28.8442 224.774 29.3077 224.137 29.3077C223.739 29.3077 223.409 29.1921 223.293 28.7286C222.862 29.1174 222.515 29.3077 221.911 29.3077C221.066 29.3077 220.537 28.8028 220.537 27.5037C220.537 26.2045 221.108 25.7324 222.002 25.7324C222.456 25.7324 222.895 25.9061 223.251 26.1545V25.7986H223.896V28.3307ZM223.251 26.7584C222.887 26.4438 222.597 26.2868 222.199 26.2868C221.587 26.2868 221.165 26.6095 221.165 27.5031C221.165 28.4877 221.537 28.7856 222.117 28.7856C222.588 28.7856 222.895 28.5211 223.25 28.1979V26.7579L223.251 26.7584Z" fill="#005AAB" stroke="#005AAB" stroke-width="0.0872728" stroke-miterlimit="10"/>
<path d="M231.046 16.7155C230.759 16.7155 230.526 16.4827 230.526 16.1955C230.526 15.9083 230.759 15.6755 231.046 15.6755C231.334 15.6755 231.566 15.9083 231.566 16.1955C231.566 16.4827 231.334 16.7155 231.046 16.7155Z" fill="#005AAB"/>
<path d="M232.773 19.6686C232.485 19.6686 232.253 19.4358 232.253 19.1486C232.253 18.8615 232.485 18.6287 232.773 18.6287C233.06 18.6287 233.292 18.8615 233.292 19.1486C233.292 19.4358 233.06 19.6686 232.773 19.6686Z" fill="#005AAB"/>
<path d="M229.416 19.6686C229.129 19.6686 228.896 19.4358 228.896 19.1486C228.896 18.8615 229.129 18.6287 229.416 18.6287C229.703 18.6287 229.936 18.8615 229.936 19.1486C229.936 19.4358 229.703 19.6686 229.416 19.6686Z" fill="#005AAB"/>
<circle cx="321.237" cy="27.5947" r="27.5947" fill="#E6E6E6"/>
<path d="M309.026 43.0001C312.906 43.0001 316.052 39.8545 316.052 35.9742C316.052 32.0939 312.906 28.9482 309.026 28.9482C305.146 28.9482 302 32.0939 302 35.9742C302 39.8545 305.146 43.0001 309.026 43.0001Z" fill="#CBCBCB"/>
<path d="M307.464 20.2952L321.651 13.5618L335.935 20.2952V22.8579H307.464V20.2952Z" stroke="#969696" stroke-width="0.574169" stroke-linecap="round" stroke-linejoin="round"/>
<path d="M313.381 24.8901H311.211V35.5115H313.381V24.8901Z" stroke="#969696" stroke-width="0.574169" stroke-linecap="round" stroke-linejoin="round"/>
<path d="M314.998 22.8579H309.595V24.8897H314.998V22.8579Z" stroke="#969696" stroke-width="0.574169" stroke-linecap="round" stroke-linejoin="round"/>
<path d="M314.998 35.5117H309.595V37.5435H314.998V35.5117Z" stroke="#969696" stroke-width="0.574169" stroke-linecap="round" stroke-linejoin="round"/>
<path d="M332.233 24.8901H330.062V35.5115H332.233V24.8901Z" stroke="#969696" stroke-width="0.574169" stroke-linecap="round" stroke-linejoin="round"/>
<path d="M333.849 22.8579H328.446V24.8897H333.849V22.8579Z" stroke="#969696" stroke-width="0.574169" stroke-linecap="round" stroke-linejoin="round"/>
<path d="M333.849 35.5117H328.446V37.5435H333.849V35.5117Z" stroke="#969696" stroke-width="0.574169" stroke-linecap="round" stroke-linejoin="round"/>
<path d="M336.281 37.5435H306.593V40.7299H336.281V37.5435Z" stroke="#969696" stroke-width="0.574169" stroke-linecap="round" stroke-linejoin="round"/>
<path d="M311.943 20.4055H331.501" stroke="#969696" stroke-width="0.574169" stroke-linecap="round" stroke-linejoin="round"/>
<path d="M316.495 18.2097H326.951" stroke="#969696" stroke-width="0.574169" stroke-linecap="round" stroke-linejoin="round"/>
<path d="M321.731 34.6433C324.226 34.6433 326.249 32.6206 326.249 30.1255C326.249 27.6304 324.226 25.6077 321.731 25.6077C319.236 25.6077 317.213 27.6304 317.213 30.1255C317.213 32.6206 319.236 34.6433 321.731 34.6433Z" stroke="#969696" stroke-width="0.574169" stroke-linecap="round" stroke-linejoin="round"/>
<path d="M323.159 28.8124C322.618 28.5861 322.053 28.425 321.641 28.425C321.157 28.425 320.85 28.659 320.85 28.9902C320.85 29.3777 321.068 29.4991 322.069 29.8054C323.143 30.1283 323.507 30.4838 323.507 31.1456C323.507 31.856 322.926 32.3406 321.973 32.3649V32.8252H321.481V32.3406C320.915 32.2677 320.399 32.058 319.922 31.6865L320.189 31.1699C320.738 31.5976 321.344 31.7997 321.901 31.7997C322.458 31.7997 322.797 31.5413 322.797 31.1699C322.797 30.7664 322.53 30.6129 321.537 30.29C320.496 29.9589 320.149 29.6603 320.149 28.9902C320.149 28.3201 320.649 27.9166 321.473 27.884V27.3591H321.973V27.9001C322.434 27.9564 322.886 28.1021 323.338 28.2958L323.16 28.8124H323.159Z" fill="#969696"/>
<path d="M334.515 12.0675C334.81 12.0675 335.049 11.8285 335.049 11.5337C335.049 11.239 334.81 11 334.515 11C334.22 11 333.981 11.239 333.981 11.5337C333.981 11.8285 334.22 12.0675 334.515 12.0675Z" fill="#969696"/>
<path d="M332.744 15.099C333.038 15.099 333.277 14.86 333.277 14.5652C333.277 14.2705 333.038 14.0315 332.744 14.0315C332.449 14.0315 332.21 14.2705 332.21 14.5652C332.21 14.86 332.449 15.099 332.744 15.099Z" fill="#969696"/>
<path d="M336.189 15.099C336.483 15.099 336.722 14.86 336.722 14.5652C336.722 14.2705 336.483 14.0315 336.189 14.0315C335.894 14.0315 335.655 14.2705 335.655 14.5652C335.655 14.86 335.894 15.099 336.189 15.099Z" fill="#969696"/>
</svg>
