<svg width="708" height="71" viewBox="0 0 708 71" fill="none" xmlns="http://www.w3.org/2000/svg">
<line x1="70" y1="35" x2="208" y2="35" stroke="#065EA6" stroke-width="4"/>
<line x1="277" y1="35" x2="423" y2="35" stroke="#065EA6" stroke-width="4"/>
<circle cx="35" cy="35" r="33.5" stroke="#065EA6" stroke-width="3"/>
<path d="M20.5059 36.103V51.1705H48.7573V36.103" stroke="#005AAB" stroke-width="0.574169" stroke-linecap="round" stroke-linejoin="round"/>
<path d="M31.9317 37.3584H24.0215V51.1704H31.9317V37.3584Z" stroke="#005AAB" stroke-width="0.574169" stroke-linecap="round" stroke-linejoin="round"/>
<path d="M44.1112 38.8652H36.7656V46.2108H44.1112V38.8652Z" stroke="#005AAB" stroke-width="0.574169" stroke-linecap="round" stroke-linejoin="round"/>
<path d="M52.3979 29.8674H16.9893L23.7067 19.1318H45.8824L52.3979 29.8674Z" stroke="#005AAB" stroke-width="0.574169" stroke-linecap="round" stroke-linejoin="round"/>
<path d="M16.8711 30.7159C16.8711 32.536 18.4321 34.0118 20.3573 34.0118C22.2825 34.0118 23.8436 32.536 23.8436 30.7159C23.8436 30.4226 23.8027 30.1389 23.727 29.8682H16.9884C16.9127 30.1389 16.8718 30.4226 16.8718 30.7159H16.8711Z" stroke="#005AAB" stroke-width="0.574169" stroke-linecap="round" stroke-linejoin="round"/>
<path d="M23.8936 30.7159C23.8936 32.536 25.4791 34.0118 27.4344 34.0118C29.3896 34.0118 30.9752 32.536 30.9752 30.7159C30.9752 30.4226 30.9336 30.1389 30.8565 29.8682H24.0122C23.9352 30.1389 23.8936 30.4226 23.8936 30.7159Z" stroke="#005AAB" stroke-width="0.574169" stroke-linecap="round" stroke-linejoin="round"/>
<path d="M31.0098 30.7159C31.0098 32.536 32.5954 34.0118 34.5506 34.0118C36.5058 34.0118 38.0914 32.536 38.0914 30.7159C38.0914 30.4226 38.0498 30.1389 37.9727 29.8682H31.1284C31.0514 30.1389 31.0098 30.4226 31.0098 30.7159Z" stroke="#005AAB" stroke-width="0.574169" stroke-linecap="round" stroke-linejoin="round"/>
<path d="M38.1689 30.7159C38.1689 32.536 39.7545 34.0118 41.7097 34.0118C43.665 34.0118 45.2505 32.536 45.2505 30.7159C45.2505 30.4226 45.2089 30.1389 45.1319 29.8682H38.2876C38.2105 30.1389 38.1689 30.4226 38.1689 30.7159Z" stroke="#005AAB" stroke-width="0.574169" stroke-linecap="round" stroke-linejoin="round"/>
<path d="M45.5513 29.8682C45.4742 30.1389 45.4326 30.4226 45.4326 30.7159C45.4326 32.536 47.0182 34.0118 48.9734 34.0118C50.9286 34.0118 52.5142 32.536 52.5142 30.7159C52.5142 30.4226 52.4726 30.1389 52.3956 29.8682H45.5513Z" stroke="#005AAB" stroke-width="0.574169" stroke-linecap="round" stroke-linejoin="round"/>
<path d="M28.1825 19.2881L23.8438 29.8682" stroke="#005AAB" stroke-width="0.574169" stroke-linecap="round" stroke-linejoin="round"/>
<path d="M32.4589 19.4043L30.9756 29.8678" stroke="#005AAB" stroke-width="0.574169" stroke-linecap="round" stroke-linejoin="round"/>
<path d="M36.9521 19.4043L38.1006 29.8678" stroke="#005AAB" stroke-width="0.574169" stroke-linecap="round" stroke-linejoin="round"/>
<path d="M41.4453 19.4043L45.338 29.8678" stroke="#005AAB" stroke-width="0.574169" stroke-linecap="round" stroke-linejoin="round"/>
<path d="M40.4374 16.4956H29.5449V19.1321H40.4374V16.4956Z" stroke="#005AAB" stroke-width="0.574169" stroke-linecap="round" stroke-linejoin="round"/>
<path d="M16.9351 17.3585C17.3102 17.3585 17.6143 17.0544 17.6143 16.6792C17.6143 16.3041 17.3102 16 16.9351 16C16.56 16 16.2559 16.3041 16.2559 16.6792C16.2559 17.0544 16.56 17.3585 16.9351 17.3585Z" fill="#005AAB"/>
<path d="M14.6792 21.2164C15.0544 21.2164 15.3585 20.9123 15.3585 20.5372C15.3585 20.162 15.0544 19.8579 14.6792 19.8579C14.3041 19.8579 14 20.162 14 20.5372C14 20.9123 14.3041 21.2164 14.6792 21.2164Z" fill="#005AAB"/>
<path d="M19.0621 21.2164C19.4372 21.2164 19.7413 20.9123 19.7413 20.5372C19.7413 20.162 19.4372 19.8579 19.0621 19.8579C18.6869 19.8579 18.3828 20.162 18.3828 20.5372C18.3828 20.9123 18.6869 21.2164 19.0621 21.2164Z" fill="#005AAB"/>
<path d="M47.591 54.9998C52.3853 54.9998 56.2718 51.1133 56.2718 46.319C56.2718 41.5247 52.3853 37.6382 47.591 37.6382C42.7967 37.6382 38.9102 41.5247 38.9102 46.319C38.9102 51.1133 42.7967 54.9998 47.591 54.9998Z" fill="#FFB000"/>
<path d="M47.5904 53.9815C51.8223 53.9815 55.253 50.5509 55.253 46.3189C55.253 42.0869 51.8223 38.6562 47.5904 38.6562C43.3584 38.6562 39.9277 42.0869 39.9277 46.3189C39.9277 50.5509 43.3584 53.9815 47.5904 53.9815Z" stroke="white" stroke-width="0.574169" stroke-linecap="round" stroke-linejoin="round"/>
<path d="M50.4417 43.8476C49.251 44.9933 48.0364 46.1138 46.8539 47.2677C46.5381 47.5753 46.341 47.6394 46.0157 47.2759C45.5991 46.8101 45.1074 46.4118 44.6573 45.974C44.3626 45.6876 44.0312 45.5723 43.7223 45.8799C43.3963 46.2038 43.4829 46.5564 43.8062 46.8653C44.5018 47.5303 45.1912 48.2013 45.8862 48.8669C46.0383 49.0129 46.2108 49.1302 46.4297 49.1513C46.6773 49.1302 46.8512 48.9829 47.0196 48.8226C48.4436 47.4668 49.8668 46.1104 51.2956 44.7601C51.6386 44.4355 51.8418 44.0679 51.4627 43.6819C51.0944 43.3068 50.7602 43.5434 50.4424 43.849L50.4417 43.8476Z" fill="white"/>
<circle cx="242" cy="36" r="33.5" stroke="#065EA6" stroke-width="3"/>
<path d="M234.148 24.8735C234.148 21.9865 236.489 19.6458 239.376 19.6458C242.263 19.6458 244.604 21.9865 244.604 24.8735V30.3116H248.437V25.0615C248.437 20.057 244.38 16 239.376 16C234.372 16 230.314 20.057 230.314 25.0615V30.3116H234.148V24.8735Z" stroke="#005AAB" stroke-width="0.574169" stroke-linecap="round" stroke-linejoin="round"/>
<path d="M244.604 24.8733C244.604 21.9862 242.263 19.6455 239.376 19.6455C236.489 19.6455 234.148 21.9862 234.148 24.8733V30.3114H244.604V24.8733Z" stroke="#005AAB" stroke-width="0.574169" stroke-linecap="round" stroke-linejoin="round"/>
<path d="M241.197 40.4098C241.197 39.4033 240.381 38.5869 239.374 38.5869C238.367 38.5869 237.551 39.4027 237.551 40.4098C237.551 41.079 237.913 41.6619 238.449 41.9789V44.5184C238.449 45.0288 238.863 45.4421 239.373 45.4421C239.883 45.4421 240.297 45.0288 240.297 44.5184V41.9789C240.834 41.6619 241.195 41.079 241.195 40.4098H241.197Z" stroke="#005AAB" stroke-width="0.574169" stroke-linecap="round" stroke-linejoin="round"/>
<path d="M251.022 30.0625H227.722C226.321 30.0625 225.182 31.202 225.182 32.6027V42.0586C225.349 42.0416 225.516 42.03 225.681 42.0233V32.6027C225.681 31.4775 226.597 30.562 227.722 30.562H251.022C252.148 30.562 253.063 31.4775 253.063 32.6027V49.9942C253.063 51.0834 252.177 51.9698 251.088 51.9698H234.106C234.071 52.1381 234.031 52.3043 233.987 52.4693H251.088C252.452 52.4693 253.562 51.359 253.562 49.9948V32.6034C253.562 31.2027 252.423 30.0632 251.022 30.0632L251.022 30.0625Z" fill="#005AAB"/>
<path d="M227.365 48.4563C228.724 48.4563 229.827 47.1613 229.827 45.5638C229.827 43.9664 228.724 42.6714 227.365 42.6714C226.005 42.6714 224.902 43.9664 224.902 45.5638C224.902 47.1613 226.005 48.4563 227.365 48.4563Z" stroke="#005AAB" stroke-width="0.574169" stroke-linecap="round" stroke-linejoin="round"/>
<path d="M225.493 48.6958C225.493 48.6958 222.171 50.4963 222.12 50.877C222.069 51.2578 221.913 52.9015 222.065 53.0026C222.217 53.1037 222.83 54.098 227.37 54.174" stroke="#005AAB" stroke-width="0.574169" stroke-linecap="round" stroke-linejoin="round"/>
<path d="M229.247 48.6958C229.247 48.6958 232.473 50.5228 232.62 50.877C232.852 51.4349 232.816 52.7895 232.612 52.985C232.48 53.1119 231.91 54.098 227.37 54.174" stroke="#005AAB" stroke-width="0.574169" stroke-linecap="round" stroke-linejoin="round"/>
<path d="M225.439 20.0708C225.802 20.0708 226.096 19.777 226.096 19.4146C226.096 19.0521 225.802 18.7583 225.439 18.7583C225.077 18.7583 224.783 19.0521 224.783 19.4146C224.783 19.777 225.077 20.0708 225.439 20.0708Z" fill="#005AAB"/>
<path d="M223.26 23.7979C223.622 23.7979 223.916 23.5041 223.916 23.1416C223.916 22.7792 223.622 22.4854 223.26 22.4854C222.897 22.4854 222.604 22.7792 222.604 23.1416C222.604 23.5041 222.897 23.7979 223.26 23.7979Z" fill="#005AAB"/>
<path d="M227.496 23.7979C227.859 23.7979 228.152 23.5041 228.152 23.1416C228.152 22.7792 227.859 22.4854 227.496 22.4854C227.134 22.4854 226.84 22.7792 226.84 23.1416C226.84 23.5041 227.134 23.7979 227.496 23.7979Z" fill="#005AAB"/>
<path d="M253.892 55.0001C258.663 55.0001 262.53 51.1324 262.53 46.3614C262.53 41.5903 258.663 37.7227 253.892 37.7227C249.121 37.7227 245.253 41.5903 245.253 46.3614C245.253 51.1324 249.121 55.0001 253.892 55.0001Z" fill="#FFB000"/>
<path d="M253.892 53.9873C258.103 53.9873 261.518 50.5732 261.518 46.3618C261.518 42.1504 258.103 38.7363 253.892 38.7363C249.681 38.7363 246.267 42.1504 246.267 46.3618C246.267 50.5732 249.681 53.9873 253.892 53.9873Z" stroke="white" stroke-width="0.574169" stroke-linecap="round" stroke-linejoin="round"/>
<path d="M256.728 43.9015C255.544 45.0417 254.335 46.1567 253.158 47.305C252.844 47.6111 252.648 47.6749 252.324 47.3132C251.909 46.8496 251.42 46.4533 250.972 46.0176C250.679 45.7326 250.349 45.6179 250.042 45.9239C249.717 46.2463 249.803 46.5972 250.125 46.9046C250.817 47.5663 251.503 48.2341 252.195 48.8965C252.346 49.0417 252.518 49.1585 252.736 49.1795C252.982 49.1585 253.155 49.0119 253.323 48.8524C254.74 47.5032 256.156 46.1533 257.578 44.8096C257.92 44.4865 258.122 44.1207 257.744 43.7366C257.378 43.3633 257.045 43.5988 256.729 43.9029L256.728 43.9015Z" fill="white"/>
<circle cx="458" cy="36" r="33.5" stroke="#065EA6" stroke-width="3"/>
<path d="M469.911 56.0001C465.443 56.0001 461.822 52.3785 461.822 47.9109C461.822 43.4434 465.443 39.8218 469.911 39.8218C474.378 39.8218 478 43.4434 478 47.9109C478 52.3785 474.378 56.0001 469.911 56.0001Z" fill="#FFB000"/>
<path d="M451.19 44.076L445.672 40.0641V39.4858L451.985 44.076H451.19Z" fill="#005AAB"/>
<path d="M452.213 44.5441H452.629L453.862 45.4408C454.652 46.0153 455.723 46.0286 456.527 45.4751L457.879 44.5441H458.514L458.597 44.6178L456.793 45.8602C455.825 46.5262 454.537 46.5097 453.588 45.8189L452.05 44.7011L452.179 44.5835C452.193 44.5714 452.204 44.5581 452.214 44.5435L452.213 44.5441Z" fill="#005AAB"/>
<path d="M441.971 53.8943L442.178 53.7056C442.626 54.0672 443.195 54.2839 443.815 54.2839H467.147C467.749 54.2839 468.304 54.0786 468.746 53.7355L468.931 53.9013C468.976 53.9414 469.032 53.9611 469.087 53.9611C469.152 53.9611 469.215 53.935 469.262 53.8835C469.348 53.7876 469.34 53.6395 469.244 53.5531L469.091 53.4152C469.507 52.9519 469.76 52.3406 469.76 51.6701V36.928L465.757 39.6848V39.1173L469.554 36.5029L469.844 36.6821C469.882 36.7056 469.924 36.717 469.966 36.717C470.045 36.717 470.121 36.6776 470.165 36.6065C470.233 36.4965 470.2 36.3523 470.09 36.2843L470.041 36.2544C470.062 36.2588 470.083 36.2658 470.102 36.2766C470.179 36.3173 470.228 36.3967 470.228 36.4838V51.6708C470.228 53.3694 468.845 54.751 467.147 54.751H443.815C443.013 54.751 442.282 54.4428 441.733 53.9395C441.759 53.949 441.786 53.9547 441.813 53.9547C441.87 53.9547 441.926 53.9344 441.971 53.8937V53.8943Z" fill="#005AAB"/>
<path d="M440.734 36.462C440.737 36.4683 440.739 36.4747 440.743 36.4804C440.813 36.5891 440.957 36.6215 441.066 36.5522L441.371 36.3584L445.205 39.1463V39.7246L441.202 36.814V51.6718C441.202 52.3251 441.444 52.9225 441.841 53.3806L441.656 53.5491C441.583 53.6158 441.563 53.7175 441.596 53.8045C441.064 53.2504 440.735 52.4986 440.735 51.6712V36.4613L440.734 36.462Z" fill="#005AAB"/>
<path d="M465.289 39.4404V40.0079L459.381 44.0763H458.556L465.289 39.4404Z" fill="#005AAB"/>
<path d="M458.702 44.5439H459.212L469.09 53.4167C468.985 53.533 468.87 53.6397 468.746 53.7363L458.595 44.6183L458.703 44.5446L458.702 44.5439Z" fill="#005AAB"/>
<path d="M458.702 44.5439L458.595 44.6177L458.513 44.5439H458.702Z" fill="#005AAB"/>
<path d="M469.09 53.416L469.243 53.5539C469.339 53.6403 469.347 53.7878 469.26 53.8844C469.214 53.9358 469.151 53.9619 469.086 53.9619C469.03 53.9619 468.975 53.9422 468.93 53.9022L468.745 53.7363C468.869 53.6403 468.985 53.5336 469.089 53.4167L469.09 53.416Z" fill="#005AAB"/>
<path d="M441.733 53.9405C441.699 53.9278 441.667 53.9081 441.641 53.8795C441.62 53.8573 441.605 53.8319 441.595 53.8052C441.639 53.8516 441.686 53.8973 441.733 53.9412L441.733 53.9405Z" fill="#005AAB"/>
<path d="M451.833 44.5439L452.049 44.7009L442.177 53.7058C442.055 53.6073 441.943 53.4986 441.84 53.3804L451.527 44.5439H451.832H451.833Z" fill="#005AAB"/>
<path d="M452.179 44.5833L452.05 44.7009L451.834 44.5439H452.213C452.203 44.5579 452.192 44.5719 452.179 44.584V44.5833Z" fill="#005AAB"/>
<path d="M441.656 53.5488L441.841 53.3804C441.943 53.4986 442.056 53.6079 442.178 53.7057L441.971 53.8945C441.926 53.9352 441.87 53.9555 441.814 53.9555C441.786 53.9555 441.76 53.9498 441.734 53.9402C441.686 53.8964 441.64 53.8513 441.596 53.8042C441.563 53.7172 441.584 53.6149 441.656 53.5488Z" fill="#005AAB"/>
<path d="M456.067 28.1502C455.511 27.8058 454.796 27.8103 454.244 28.1617L452.971 28.9726H452.1L453.993 27.767C454.695 27.3197 455.606 27.3146 456.314 27.7524L458.283 28.9719H457.395L456.068 28.1496L456.067 28.1502Z" fill="#005AAB"/>
<path d="M469.862 36.2921L469.555 36.5037L465.758 34.1524V33.6021L470.042 36.2552C469.98 36.2425 469.916 36.2552 469.862 36.2914V36.2921Z" fill="#005AAB"/>
<path d="M441.371 36.3583L441.106 36.1658C441.035 36.1143 440.941 36.1067 440.863 36.1467C440.785 36.1868 440.735 36.2668 440.735 36.3552V36.4626C440.68 36.3564 440.713 36.2236 440.816 36.1582L445.205 33.3633V33.9174L441.371 36.3583H441.371Z" fill="#005AAB"/>
<path d="M440.862 36.1461C440.94 36.1061 441.034 36.1137 441.105 36.1652L441.37 36.3577L441.066 36.5516C440.957 36.6208 440.812 36.5891 440.743 36.4798C440.739 36.474 440.737 36.4677 440.733 36.4613V36.3539C440.733 36.2662 440.783 36.1855 440.861 36.1455L440.862 36.1461Z" fill="#005AAB"/>
<path d="M470.165 36.6078C470.121 36.679 470.045 36.7184 469.967 36.7184C469.925 36.7184 469.882 36.7069 469.844 36.6834L469.554 36.5042L469.862 36.2926C469.915 36.2557 469.98 36.2436 470.041 36.2564L470.09 36.2862C470.2 36.3542 470.234 36.4985 470.166 36.6084L470.165 36.6078Z" fill="#005AAB"/>
<path d="M465.291 33.8623L465.759 34.1521V39.1178L465.291 39.44V33.8623Z" fill="#005AAB"/>
<path d="M448.833 29.4404C447.09 29.4404 445.672 30.8582 445.672 32.6007V33.0652L445.205 33.3626V32.6007C445.205 30.6001 446.832 28.9727 448.833 28.9727H452.1L451.365 29.4404H448.832H448.833Z" fill="#005AAB"/>
<path d="M465.29 32.6007C465.29 30.8582 463.872 29.4404 462.129 29.4404H459.038L458.283 28.9727H462.129C464.129 28.9727 465.757 30.6001 465.757 32.6007V33.6022L465.289 33.3124V32.6007H465.29Z" fill="#005AAB"/>
<path d="M452.97 28.9727H457.394L458.149 29.4404H452.236L452.97 28.9727Z" fill="#005AAB"/>
<path d="M445.673 33.6191V39.486L445.205 39.146V33.9165L445.673 33.6191Z" fill="#005AAB"/>
<path d="M452.628 44.5442H452.212C452.273 44.4565 452.268 44.3358 452.193 44.2538C452.106 44.1585 451.958 44.1515 451.863 44.2386L451.663 44.421L451.19 44.0771H451.985L452.628 44.5449V44.5442Z" fill="#005AAB"/>
<path d="M458.447 44.4835L458.514 44.5432H457.879L458.413 44.1753C458.346 44.2706 458.358 44.4034 458.447 44.4835Z" fill="#005AAB"/>
<path d="M465.291 39.4404L465.759 39.1182V39.6857L465.291 40.0079V39.4404Z" fill="#005AAB"/>
<path d="M445.673 40.0643L445.205 39.7243V39.146L445.673 39.486V40.0643Z" fill="#005AAB"/>
<path d="M458.547 44.0822L458.557 44.0752H459.381L458.991 44.3441L458.758 44.135C458.698 44.0816 458.619 44.0644 458.546 44.0816L458.547 44.0822Z" fill="#005AAB"/>
<path d="M458.548 44.083L458.413 44.1758C458.418 44.1682 458.423 44.1605 458.429 44.1535C458.462 44.1173 458.503 44.0932 458.548 44.083Z" fill="#005AAB"/>
<path d="M459.214 44.5436H458.704L458.993 44.3447L459.214 44.5436Z" fill="#005AAB"/>
<path d="M458.446 44.4834C458.357 44.4033 458.345 44.2705 458.412 44.1751L458.547 44.0824C458.619 44.0646 458.699 44.0824 458.759 44.1357L458.991 44.3448L458.703 44.5437H458.513L458.447 44.484L458.446 44.4834Z" fill="#005AAB"/>
<path d="M451.528 44.5438L451.663 44.4199L451.833 44.5438H451.528Z" fill="#005AAB"/>
<path d="M452.192 44.253C452.267 44.335 452.272 44.4558 452.211 44.5435H451.832L451.662 44.4202L451.862 44.2378C451.957 44.1507 452.105 44.1577 452.192 44.253Z" fill="#005AAB"/>
<path d="M452.235 29.4404H451.364L452.098 28.9727H452.97L452.235 29.4404Z" fill="#005AAB"/>
<path d="M445.673 33.6191L445.205 33.9165V33.3624L445.673 33.0649V33.6191Z" fill="#005AAB"/>
<path d="M465.291 33.8623V33.312L465.759 33.6018V34.1521L465.291 33.8623Z" fill="#005AAB"/>
<path d="M458.149 29.4404L457.394 28.9727H458.282L459.037 29.4404H458.149Z" fill="#005AAB"/>
<path d="M448.861 25.8721L450.424 27.7506V25.9642C450.424 25.8848 450.489 25.82 450.568 25.82H451.995C452.497 25.82 452.905 25.412 452.905 24.9106V18.1979C452.905 17.6965 452.497 17.2885 451.995 17.2885H446.171V17H451.995C452.656 17 453.193 17.5376 453.193 18.1979V24.9106C453.193 25.5709 452.656 26.1085 451.995 26.1085H450.712V28.1497C450.712 28.2107 450.674 28.2647 450.617 28.285C450.601 28.2908 450.585 28.2939 450.568 28.2939C450.526 28.2939 450.485 28.2755 450.457 28.2418L448.683 26.1085H446.171V25.82H448.751C448.793 25.82 448.834 25.839 448.862 25.8721H448.861Z" fill="#005AAB"/>
<path d="M439.663 17.0005H445.829V17.289H439.663C439.162 17.289 438.754 17.697 438.754 18.1984V24.9111C438.754 25.4125 439.162 25.8205 439.663 25.8205H445.829V26.109H439.663C439.003 26.109 438.465 25.5713 438.465 24.9111V18.1984C438.465 17.5381 439.003 17.0005 439.663 17.0005Z" fill="#005AAB"/>
<path d="M442.163 23.1711L442.118 21.9512L443.15 22.6055L443.416 22.1397L442.329 21.5741L443.416 21.0085L443.15 20.5427L442.118 21.197L442.163 19.9771H441.63L441.675 21.197L440.643 20.5427L440.377 21.0085L441.464 21.5741L440.377 22.1397L440.643 22.6055L441.675 21.9512L441.63 23.1711H442.163Z" fill="#005AAB"/>
<path d="M446.091 23.1711L446.047 21.9512L447.079 22.6055L447.345 22.1397L446.258 21.5741L447.345 21.0085L447.079 20.5427L446.047 21.197L446.091 19.9771H445.559L445.604 21.197L444.572 20.5427L444.306 21.0085L445.393 21.5741L444.306 22.1397L444.572 22.6055L445.604 21.9512L445.559 23.1711H446.091Z" fill="#005AAB"/>
<path d="M450.02 23.1711L449.976 21.9512L451.007 22.6055L451.273 22.1397L450.187 21.5741L451.273 21.0085L451.007 20.5427L449.976 21.197L450.02 19.9771H449.488L449.532 21.197L448.501 20.5427L448.235 21.0085L449.321 21.5741L448.235 22.1397L448.501 22.6055L449.532 21.9512L449.488 23.1711H450.02Z" fill="#005AAB"/>
<path d="M457.251 37.4819C457.251 38.01 457.417 38.1765 457.721 38.1765C458.229 38.1765 458.924 37.6681 458.943 36.0838C458.943 34.157 457.633 32.8854 455.52 32.8854C453.407 32.8854 451.813 34.3521 451.813 36.5433C451.813 38.7344 453.231 40.0448 455.353 40.0448C456.292 40.0448 457.035 39.8395 457.72 39.4875L457.886 39.8198C457.221 40.2304 456.312 40.475 455.353 40.475C452.967 40.475 451.383 38.9003 451.383 36.5433C451.383 34.1862 453.114 32.4844 455.52 32.4844C457.926 32.4844 459.373 33.9416 459.373 36.0838C459.354 38.0888 458.288 38.6366 457.535 38.6366C457.065 38.6366 456.675 38.4999 456.537 37.9521C456.029 38.4116 455.618 38.6366 454.904 38.6366C453.906 38.6366 453.28 38.0398 453.28 36.5045C453.28 34.9691 453.955 34.4112 455.011 34.4112C455.549 34.4112 456.068 34.6164 456.488 34.91V34.4893H457.251V37.4819ZM456.488 35.6237C456.057 35.2519 455.715 35.0664 455.245 35.0664C454.521 35.0664 454.023 35.4477 454.023 36.5039C454.023 37.6674 454.463 38.0195 455.147 38.0195C455.705 38.0195 456.067 37.7068 456.487 37.3249V35.6231L456.488 35.6237Z" fill="#005AAB" stroke="#005AAB" stroke-width="0.0872728" stroke-miterlimit="10"/>
<path d="M465.702 23.7544C465.362 23.7544 465.087 23.4793 465.087 23.1399C465.087 22.8005 465.362 22.5254 465.702 22.5254C466.041 22.5254 466.316 22.8005 466.316 23.1399C466.316 23.4793 466.041 23.7544 465.702 23.7544Z" fill="#005AAB"/>
<path d="M467.742 27.2447C467.403 27.2447 467.127 26.9695 467.127 26.6301C467.127 26.2908 467.403 26.0156 467.742 26.0156C468.081 26.0156 468.356 26.2908 468.356 26.6301C468.356 26.9695 468.081 27.2447 467.742 27.2447Z" fill="#005AAB"/>
<path d="M463.775 27.2447C463.436 27.2447 463.161 26.9695 463.161 26.6301C463.161 26.2908 463.436 26.0156 463.775 26.0156C464.115 26.0156 464.39 26.2908 464.39 26.6301C464.39 26.9695 464.115 27.2447 463.775 27.2447Z" fill="#005AAB"/>
<circle cx="673" cy="35" r="35" fill="#E6E6E6"/>
<path d="M657.563 54.0002C662.292 54.0002 666.126 50.1665 666.126 45.4374C666.126 40.7082 662.292 36.8745 657.563 36.8745C652.834 36.8745 649 40.7082 649 45.4374C649 50.1665 652.834 54.0002 657.563 54.0002Z" fill="#CBCBCB"/>
<path d="M655.659 26.3284L672.95 18.1221L690.358 26.3284V29.4517H655.659V26.3284Z" stroke="#969696" stroke-width="0.574169" stroke-linecap="round" stroke-linejoin="round"/>
<path d="M662.871 31.9282H660.226V44.8731H662.871V31.9282Z" stroke="#969696" stroke-width="0.574169" stroke-linecap="round" stroke-linejoin="round"/>
<path d="M664.841 29.4512H658.256V31.9274H664.841V29.4512Z" stroke="#969696" stroke-width="0.574169" stroke-linecap="round" stroke-linejoin="round"/>
<path d="M664.841 44.873H658.256V47.3493H664.841V44.873Z" stroke="#969696" stroke-width="0.574169" stroke-linecap="round" stroke-linejoin="round"/>
<path d="M685.846 31.9282H683.201V44.8731H685.846V31.9282Z" stroke="#969696" stroke-width="0.574169" stroke-linecap="round" stroke-linejoin="round"/>
<path d="M687.817 29.4512H681.231V31.9274H687.817V29.4512Z" stroke="#969696" stroke-width="0.574169" stroke-linecap="round" stroke-linejoin="round"/>
<path d="M687.817 44.873H681.231V47.3493H687.817V44.873Z" stroke="#969696" stroke-width="0.574169" stroke-linecap="round" stroke-linejoin="round"/>
<path d="M690.78 47.3491H654.598V51.2326H690.78V47.3491Z" stroke="#969696" stroke-width="0.574169" stroke-linecap="round" stroke-linejoin="round"/>
<path d="M661.118 26.4629H684.954" stroke="#969696" stroke-width="0.574169" stroke-linecap="round" stroke-linejoin="round"/>
<path d="M666.666 23.7866H679.41" stroke="#969696" stroke-width="0.574169" stroke-linecap="round" stroke-linejoin="round"/>
<path d="M673.047 43.8149C676.088 43.8149 678.553 41.3497 678.553 38.3088C678.553 35.2679 676.088 32.8027 673.047 32.8027C670.006 32.8027 667.541 35.2679 667.541 38.3088C667.541 41.3497 670.006 43.8149 673.047 43.8149Z" stroke="#969696" stroke-width="0.574169" stroke-linecap="round" stroke-linejoin="round"/>
<path d="M674.788 36.7087C674.129 36.4329 673.44 36.2365 672.939 36.2365C672.348 36.2365 671.975 36.5217 671.975 36.9253C671.975 37.3976 672.24 37.5456 673.461 37.9189C674.769 38.3125 675.212 38.7457 675.212 39.5522C675.212 40.418 674.504 41.0087 673.343 41.0382V41.5993H672.743V41.0087C672.054 40.9199 671.424 40.6642 670.844 40.2115L671.169 39.5818C671.838 40.1032 672.576 40.3494 673.255 40.3494C673.933 40.3494 674.347 40.0346 674.347 39.5818C674.347 39.0901 674.022 38.9031 672.812 38.5096C671.543 38.1059 671.12 37.742 671.12 36.9253C671.12 36.1087 671.73 35.6169 672.733 35.5772V34.9375H673.344V35.5967C673.905 35.6654 674.455 35.843 675.006 36.0791L674.79 36.7087H674.788Z" fill="#969696"/>
<path d="M688.628 16.301C688.987 16.301 689.279 16.0098 689.279 15.6505C689.279 15.2912 688.987 15 688.628 15C688.269 15 687.978 15.2912 687.978 15.6505C687.978 16.0098 688.269 16.301 688.628 16.301Z" fill="#969696"/>
<path d="M686.469 19.9953C686.828 19.9953 687.119 19.7041 687.119 19.3448C687.119 18.9856 686.828 18.6943 686.469 18.6943C686.11 18.6943 685.818 18.9856 685.818 19.3448C685.818 19.7041 686.11 19.9953 686.469 19.9953Z" fill="#969696"/>
<path d="M690.668 19.9953C691.027 19.9953 691.319 19.7041 691.319 19.3448C691.319 18.9856 691.027 18.6943 690.668 18.6943C690.309 18.6943 690.018 18.9856 690.018 19.3448C690.018 19.7041 690.309 19.9953 690.668 19.9953Z" fill="#969696"/>
<line x1="493" y1="35" x2="638" y2="35" stroke="#969696" stroke-width="4"/>
<line x1="493" y1="35" x2="566" y2="35" stroke="#065EA6" stroke-width="4"/>
</svg>
