<svg width="708" height="71" viewBox="0 0 708 71" fill="none" xmlns="http://www.w3.org/2000/svg">
<line x1="70" y1="35" x2="208" y2="35" stroke="#065EA6" stroke-width="4"/>
<line x1="277" y1="35" x2="423" y2="35" stroke="#969696" stroke-width="4"/>
<line x1="277" y1="35" x2="350" y2="35" stroke="#065EA6" stroke-width="4"/>
<circle cx="35" cy="35" r="33.5" stroke="#065EA6" stroke-width="3"/>
<path d="M20.5059 36.103V51.1705H48.7573V36.103" stroke="#005AAB" stroke-width="0.574169" stroke-linecap="round" stroke-linejoin="round"/>
<path d="M31.9317 37.3584H24.0215V51.1704H31.9317V37.3584Z" stroke="#005AAB" stroke-width="0.574169" stroke-linecap="round" stroke-linejoin="round"/>
<path d="M44.1112 38.8652H36.7656V46.2108H44.1112V38.8652Z" stroke="#005AAB" stroke-width="0.574169" stroke-linecap="round" stroke-linejoin="round"/>
<path d="M52.3979 29.8674H16.9893L23.7067 19.1318H45.8824L52.3979 29.8674Z" stroke="#005AAB" stroke-width="0.574169" stroke-linecap="round" stroke-linejoin="round"/>
<path d="M16.8711 30.7159C16.8711 32.536 18.4321 34.0118 20.3573 34.0118C22.2825 34.0118 23.8436 32.536 23.8436 30.7159C23.8436 30.4226 23.8027 30.1389 23.727 29.8682H16.9884C16.9127 30.1389 16.8718 30.4226 16.8718 30.7159H16.8711Z" stroke="#005AAB" stroke-width="0.574169" stroke-linecap="round" stroke-linejoin="round"/>
<path d="M23.8936 30.7159C23.8936 32.536 25.4791 34.0118 27.4344 34.0118C29.3896 34.0118 30.9752 32.536 30.9752 30.7159C30.9752 30.4226 30.9336 30.1389 30.8565 29.8682H24.0122C23.9352 30.1389 23.8936 30.4226 23.8936 30.7159Z" stroke="#005AAB" stroke-width="0.574169" stroke-linecap="round" stroke-linejoin="round"/>
<path d="M31.0098 30.7159C31.0098 32.536 32.5954 34.0118 34.5506 34.0118C36.5058 34.0118 38.0914 32.536 38.0914 30.7159C38.0914 30.4226 38.0498 30.1389 37.9727 29.8682H31.1284C31.0514 30.1389 31.0098 30.4226 31.0098 30.7159Z" stroke="#005AAB" stroke-width="0.574169" stroke-linecap="round" stroke-linejoin="round"/>
<path d="M38.1689 30.7159C38.1689 32.536 39.7545 34.0118 41.7097 34.0118C43.665 34.0118 45.2505 32.536 45.2505 30.7159C45.2505 30.4226 45.2089 30.1389 45.1319 29.8682H38.2876C38.2105 30.1389 38.1689 30.4226 38.1689 30.7159Z" stroke="#005AAB" stroke-width="0.574169" stroke-linecap="round" stroke-linejoin="round"/>
<path d="M45.5513 29.8682C45.4742 30.1389 45.4326 30.4226 45.4326 30.7159C45.4326 32.536 47.0182 34.0118 48.9734 34.0118C50.9286 34.0118 52.5142 32.536 52.5142 30.7159C52.5142 30.4226 52.4726 30.1389 52.3956 29.8682H45.5513Z" stroke="#005AAB" stroke-width="0.574169" stroke-linecap="round" stroke-linejoin="round"/>
<path d="M28.1825 19.2881L23.8438 29.8682" stroke="#005AAB" stroke-width="0.574169" stroke-linecap="round" stroke-linejoin="round"/>
<path d="M32.4589 19.4043L30.9756 29.8678" stroke="#005AAB" stroke-width="0.574169" stroke-linecap="round" stroke-linejoin="round"/>
<path d="M36.9521 19.4043L38.1006 29.8678" stroke="#005AAB" stroke-width="0.574169" stroke-linecap="round" stroke-linejoin="round"/>
<path d="M41.4453 19.4043L45.338 29.8678" stroke="#005AAB" stroke-width="0.574169" stroke-linecap="round" stroke-linejoin="round"/>
<path d="M40.4374 16.4956H29.5449V19.1321H40.4374V16.4956Z" stroke="#005AAB" stroke-width="0.574169" stroke-linecap="round" stroke-linejoin="round"/>
<path d="M16.9351 17.3585C17.3102 17.3585 17.6143 17.0544 17.6143 16.6792C17.6143 16.3041 17.3102 16 16.9351 16C16.56 16 16.2559 16.3041 16.2559 16.6792C16.2559 17.0544 16.56 17.3585 16.9351 17.3585Z" fill="#005AAB"/>
<path d="M14.6792 21.2164C15.0544 21.2164 15.3585 20.9123 15.3585 20.5372C15.3585 20.162 15.0544 19.8579 14.6792 19.8579C14.3041 19.8579 14 20.162 14 20.5372C14 20.9123 14.3041 21.2164 14.6792 21.2164Z" fill="#005AAB"/>
<path d="M19.0621 21.2164C19.4372 21.2164 19.7413 20.9123 19.7413 20.5372C19.7413 20.162 19.4372 19.8579 19.0621 19.8579C18.6869 19.8579 18.3828 20.162 18.3828 20.5372C18.3828 20.9123 18.6869 21.2164 19.0621 21.2164Z" fill="#005AAB"/>
<path d="M47.591 54.9998C52.3853 54.9998 56.2718 51.1133 56.2718 46.319C56.2718 41.5247 52.3853 37.6382 47.591 37.6382C42.7967 37.6382 38.9102 41.5247 38.9102 46.319C38.9102 51.1133 42.7967 54.9998 47.591 54.9998Z" fill="#FFB000"/>
<path d="M47.5904 53.9815C51.8223 53.9815 55.253 50.5509 55.253 46.3189C55.253 42.0869 51.8223 38.6562 47.5904 38.6562C43.3584 38.6562 39.9277 42.0869 39.9277 46.3189C39.9277 50.5509 43.3584 53.9815 47.5904 53.9815Z" stroke="white" stroke-width="0.574169" stroke-linecap="round" stroke-linejoin="round"/>
<path d="M50.4417 43.8476C49.251 44.9933 48.0364 46.1138 46.8539 47.2677C46.5381 47.5753 46.341 47.6394 46.0157 47.2759C45.5991 46.8101 45.1074 46.4118 44.6573 45.974C44.3626 45.6876 44.0312 45.5723 43.7223 45.8799C43.3963 46.2038 43.4829 46.5564 43.8062 46.8653C44.5018 47.5303 45.1912 48.2013 45.8862 48.8669C46.0383 49.0129 46.2108 49.1302 46.4297 49.1513C46.6773 49.1302 46.8512 48.9829 47.0196 48.8226C48.4436 47.4668 49.8668 46.1104 51.2956 44.7601C51.6386 44.4355 51.8418 44.0679 51.4627 43.6819C51.0944 43.3068 50.7602 43.5434 50.4424 43.849L50.4417 43.8476Z" fill="white"/>
<circle cx="242" cy="36" r="33.5" stroke="#065EA6" stroke-width="3"/>
<path d="M253.993 40.4464C258.867 40.4464 262.818 36.495 262.818 31.6206C262.818 26.7463 258.867 22.7949 253.993 22.7949C249.118 22.7949 245.167 26.7463 245.167 31.6206C245.167 36.495 249.118 40.4464 253.993 40.4464Z" fill="#FFB000"/>
<path d="M234.41 26.0656C234.41 23.1161 236.801 20.7247 239.751 20.7247C242.7 20.7247 245.092 23.1161 245.092 26.0656V31.6215H249.009V26.2577C249.009 21.1449 244.864 17 239.751 17C234.638 17 230.493 21.1449 230.493 26.2577V31.6215H234.41V26.0656Z" stroke="#005AAB" stroke-width="0.574169" stroke-linecap="round" stroke-linejoin="round"/>
<path d="M245.091 26.0655C245.091 23.116 242.7 20.7246 239.75 20.7246C236.801 20.7246 234.409 23.116 234.409 26.0655V31.6214H245.091V26.0655Z" stroke="#005AAB" stroke-width="0.574169" stroke-linecap="round" stroke-linejoin="round"/>
<path d="M241.61 41.9385C241.61 40.9103 240.777 40.0762 239.748 40.0762C238.719 40.0762 237.886 40.9096 237.886 41.9385C237.886 42.6222 238.255 43.2178 238.804 43.5416V46.1361C238.804 46.6575 239.226 47.0798 239.747 47.0798C240.269 47.0798 240.691 46.6575 240.691 46.1361V43.5416C241.24 43.2178 241.609 42.6222 241.609 41.9385H241.61Z" stroke="#005AAB" stroke-width="0.574169" stroke-linecap="round" stroke-linejoin="round"/>
<path d="M251.651 31.3657H227.846C226.415 31.3657 225.251 32.5299 225.251 33.961V43.6215C225.422 43.6041 225.592 43.5924 225.761 43.5854V33.961C225.761 32.8114 226.697 31.876 227.846 31.876H251.651C252.801 31.876 253.736 32.8114 253.736 33.961V51.7289C253.736 52.8417 252.831 53.7472 251.718 53.7472H234.369C234.333 53.9192 234.292 54.0891 234.247 54.2576H251.718C253.112 54.2576 254.246 53.1232 254.246 51.7296V33.9616C254.246 32.5306 253.082 31.3664 251.65 31.3664L251.651 31.3657Z" fill="#005AAB"/>
<path d="M227.479 50.1592C228.869 50.1592 229.995 48.8362 229.995 47.2041C229.995 45.5721 228.869 44.249 227.479 44.249C226.09 44.249 224.964 45.5721 224.964 47.2041C224.964 48.8362 226.09 50.1592 227.479 50.1592Z" stroke="#005AAB" stroke-width="0.574169" stroke-linecap="round" stroke-linejoin="round"/>
<path d="M225.569 50.4028C225.569 50.4028 222.174 52.2423 222.123 52.6313C222.071 53.0202 221.911 54.6996 222.066 54.8029C222.221 54.9062 222.848 55.9219 227.487 55.9996" stroke="#005AAB" stroke-width="0.574169" stroke-linecap="round" stroke-linejoin="round"/>
<path d="M229.404 50.4028C229.404 50.4028 232.7 52.2693 232.85 52.6313C233.087 53.2012 233.05 54.5851 232.842 54.7848C232.707 54.9145 232.125 55.9219 227.486 55.9996" stroke="#005AAB" stroke-width="0.574169" stroke-linecap="round" stroke-linejoin="round"/>
<path d="M225.512 21.1583C225.883 21.1583 226.183 20.8581 226.183 20.4879C226.183 20.1176 225.883 19.8174 225.512 19.8174C225.142 19.8174 224.842 20.1176 224.842 20.4879C224.842 20.8581 225.142 21.1583 225.512 21.1583Z" fill="#005AAB"/>
<path d="M223.286 24.9664C223.656 24.9664 223.956 24.6663 223.956 24.296C223.956 23.9257 223.656 23.6255 223.286 23.6255C222.915 23.6255 222.615 23.9257 222.615 24.296C222.615 24.6663 222.915 24.9664 223.286 24.9664Z" fill="#005AAB"/>
<path d="M227.614 24.9664C227.984 24.9664 228.284 24.6663 228.284 24.296C228.284 23.9257 227.984 23.6255 227.614 23.6255C227.244 23.6255 226.943 23.9257 226.943 24.296C226.943 24.6663 227.244 24.9664 227.614 24.9664Z" fill="#005AAB"/>
<circle cx="458" cy="36" r="35" fill="#E6E6E6"/>
<path d="M469.911 54.9997C465.443 54.9997 461.822 51.378 461.822 46.9105C461.822 42.4429 465.443 38.8213 469.911 38.8213C474.378 38.8213 478 42.4429 478 46.9105C478 51.378 474.378 54.9997 469.911 54.9997Z" fill="#CBCBCB"/>
<path d="M451.188 43.0755L445.67 39.0637V38.4854L451.983 43.0755H451.188Z" fill="#969696"/>
<path d="M452.211 43.5426H452.627L453.86 44.4393C454.65 45.0138 455.721 45.0271 456.525 44.4736L457.877 43.5426H458.512L458.595 43.6163L456.791 44.8587C455.823 45.5247 454.535 45.5082 453.586 44.8174L452.049 43.6996L452.178 43.582C452.191 43.57 452.202 43.5566 452.212 43.542L452.211 43.5426Z" fill="#969696"/>
<path d="M441.969 52.8939L442.176 52.7052C442.624 53.0668 443.193 53.2835 443.813 53.2835H467.145C467.747 53.2835 468.302 53.0782 468.744 52.735L468.929 52.9009C468.974 52.9409 469.03 52.9606 469.086 52.9606C469.15 52.9606 469.213 52.9346 469.26 52.8831C469.346 52.7871 469.338 52.6391 469.242 52.5526L469.089 52.4147C469.505 51.9515 469.758 51.3401 469.758 50.6697V35.9275L465.756 38.6843V38.1168L469.552 35.5024L469.842 35.6816C469.88 35.7051 469.922 35.7165 469.964 35.7165C470.043 35.7165 470.119 35.6771 470.163 35.606C470.231 35.496 470.198 35.3518 470.088 35.2838L470.039 35.2539C470.06 35.2584 470.081 35.2653 470.1 35.2761C470.177 35.3168 470.226 35.3963 470.226 35.4833V50.6703C470.226 52.369 468.843 53.7506 467.145 53.7506H443.813C443.011 53.7506 442.28 53.4423 441.731 52.939C441.757 52.9486 441.784 52.9543 441.811 52.9543C441.868 52.9543 441.924 52.9339 441.969 52.8933V52.8939Z" fill="#969696"/>
<path d="M440.732 35.461C440.735 35.4674 440.738 35.4737 440.741 35.4794C440.811 35.5881 440.955 35.6205 441.064 35.5512L441.369 35.3574L445.203 38.1453V38.7236L441.2 35.8131V50.6709C441.2 51.3242 441.442 51.9215 441.839 52.3797L441.655 52.5481C441.581 52.6149 441.561 52.7165 441.594 52.8036C441.062 52.2494 440.733 51.4977 440.733 50.6702V35.4604L440.732 35.461Z" fill="#969696"/>
<path d="M465.287 38.4395V39.0069L459.379 43.0754H458.554L465.287 38.4395Z" fill="#969696"/>
<path d="M458.699 43.543H459.209L469.087 52.4157C468.982 52.532 468.867 52.6388 468.743 52.7354L458.592 43.6173L458.7 43.5436L458.699 43.543Z" fill="#969696"/>
<path d="M458.7 43.543L458.593 43.6167L458.511 43.543H458.7Z" fill="#969696"/>
<path d="M469.089 52.415L469.242 52.5529C469.338 52.6394 469.346 52.7868 469.259 52.8834C469.213 52.9349 469.15 52.9609 469.085 52.9609C469.029 52.9609 468.974 52.9412 468.929 52.9012L468.744 52.7353C468.868 52.6394 468.984 52.5326 469.088 52.4157L469.089 52.415Z" fill="#969696"/>
<path d="M441.731 52.9396C441.697 52.9268 441.665 52.9071 441.639 52.8786C441.618 52.8563 441.603 52.8309 441.593 52.8042C441.637 52.8506 441.684 52.8963 441.731 52.9402L441.731 52.9396Z" fill="#969696"/>
<path d="M451.831 43.543L452.047 43.6999L442.175 52.7049C442.053 52.6064 441.941 52.4977 441.838 52.3795L451.525 43.543H451.83H451.831Z" fill="#969696"/>
<path d="M452.177 43.5824L452.048 43.6999L451.832 43.543H452.211C452.201 43.5569 452.19 43.5709 452.177 43.583V43.5824Z" fill="#969696"/>
<path d="M441.654 52.5483L441.839 52.3799C441.941 52.4981 442.054 52.6074 442.176 52.7053L441.969 52.894C441.924 52.9347 441.868 52.955 441.812 52.955C441.784 52.955 441.758 52.9493 441.732 52.9398C441.684 52.8959 441.638 52.8508 441.594 52.8038C441.561 52.7167 441.582 52.6144 441.654 52.5483Z" fill="#969696"/>
<path d="M456.065 27.1493C455.509 26.8048 454.794 26.8093 454.242 27.1607L452.969 27.9716H452.098L453.991 26.7661C454.693 26.3187 455.604 26.3136 456.312 26.7515L458.281 27.971H457.393L456.066 27.1486L456.065 27.1493Z" fill="#969696"/>
<path d="M469.859 35.2916L469.552 35.5032L465.755 33.1519V32.6016L470.039 35.2547C469.977 35.242 469.913 35.2547 469.859 35.291V35.2916Z" fill="#969696"/>
<path d="M441.369 35.3574L441.104 35.1648C441.033 35.1134 440.939 35.1057 440.861 35.1458C440.783 35.1858 440.733 35.2659 440.733 35.3542V35.4616C440.678 35.3555 440.711 35.2227 440.814 35.1572L445.203 32.3623V32.9165L441.369 35.3574H441.369Z" fill="#969696"/>
<path d="M440.86 35.1447C440.938 35.1046 441.032 35.1122 441.103 35.1637L441.368 35.3563L441.064 35.5501C440.955 35.6194 440.81 35.5876 440.741 35.4783C440.737 35.4726 440.735 35.4662 440.731 35.4599V35.3525C440.731 35.2648 440.781 35.1841 440.859 35.144L440.86 35.1447Z" fill="#969696"/>
<path d="M470.163 35.6068C470.119 35.678 470.043 35.7174 469.965 35.7174C469.923 35.7174 469.88 35.7059 469.842 35.6824L469.552 35.5032L469.86 35.2916C469.913 35.2547 469.978 35.2427 470.04 35.2554L470.088 35.2852C470.198 35.3532 470.232 35.4975 470.164 35.6074L470.163 35.6068Z" fill="#969696"/>
<path d="M465.289 32.8618L465.757 33.1516V38.1173L465.289 38.4395V32.8618Z" fill="#969696"/>
<path d="M448.831 28.4389C447.088 28.4389 445.67 29.8567 445.67 31.5992V32.0638L445.203 32.3612V31.5992C445.203 29.5987 446.83 27.9712 448.831 27.9712H452.098L451.363 28.4389H448.83H448.831Z" fill="#969696"/>
<path d="M465.288 31.5992C465.288 29.8567 463.87 28.4389 462.127 28.4389H459.036L458.281 27.9712H462.127C464.127 27.9712 465.755 29.5987 465.755 31.5992V32.6008L465.287 32.311V31.5992H465.288Z" fill="#969696"/>
<path d="M452.969 27.9712H457.393L458.148 28.4389H452.235L452.969 27.9712Z" fill="#969696"/>
<path d="M445.671 32.6177V38.4845L445.203 38.1446V32.9151L445.671 32.6177Z" fill="#969696"/>
<path d="M452.627 43.5433H452.211C452.272 43.4556 452.267 43.3348 452.192 43.2528C452.105 43.1575 451.957 43.1505 451.862 43.2376L451.662 43.42L451.189 43.0762H451.984L452.627 43.5439V43.5433Z" fill="#969696"/>
<path d="M458.444 43.482L458.511 43.5418H457.876L458.41 43.1738C458.343 43.2692 458.355 43.402 458.444 43.482Z" fill="#969696"/>
<path d="M465.289 38.4399L465.757 38.1177V38.6852L465.289 39.0074V38.4399Z" fill="#969696"/>
<path d="M445.671 39.0633L445.203 38.7233V38.145L445.671 38.485V39.0633Z" fill="#969696"/>
<path d="M458.546 43.0817L458.556 43.0748H459.38L458.99 43.3436L458.757 43.1345C458.697 43.0811 458.618 43.064 458.545 43.0811L458.546 43.0817Z" fill="#969696"/>
<path d="M458.546 43.082L458.411 43.1748C458.416 43.1672 458.421 43.1596 458.427 43.1526C458.46 43.1163 458.501 43.0922 458.546 43.082Z" fill="#969696"/>
<path d="M459.211 43.5427H458.701L458.99 43.3438L459.211 43.5427Z" fill="#969696"/>
<path d="M458.444 43.4829C458.355 43.4028 458.343 43.27 458.41 43.1747L458.545 43.0819C458.617 43.0641 458.697 43.0819 458.757 43.1352L458.989 43.3443L458.701 43.5432H458.511L458.445 43.4835L458.444 43.4829Z" fill="#969696"/>
<path d="M451.526 43.5429L451.661 43.4189L451.831 43.5429H451.526Z" fill="#969696"/>
<path d="M452.19 43.2525C452.265 43.3345 452.27 43.4553 452.209 43.543H451.83L451.66 43.4197L451.86 43.2373C451.955 43.1502 452.103 43.1572 452.19 43.2525Z" fill="#969696"/>
<path d="M452.234 28.4389H451.363L452.097 27.9712H452.969L452.234 28.4389Z" fill="#969696"/>
<path d="M445.671 32.6181L445.203 32.9155V32.3614L445.671 32.064V32.6181Z" fill="#969696"/>
<path d="M465.289 32.8614V32.311L465.757 32.6008V33.1512L465.289 32.8614Z" fill="#969696"/>
<path d="M458.148 28.4389L457.393 27.9712H458.281L459.036 28.4389H458.148Z" fill="#969696"/>
<path d="M448.861 24.8721L450.424 26.7506V24.9643C450.424 24.8848 450.489 24.82 450.568 24.82H451.995C452.497 24.82 452.905 24.412 452.905 23.9106V17.1979C452.905 16.6965 452.497 16.2885 451.995 16.2885H446.171V16H451.995C452.656 16 453.193 16.5376 453.193 17.1979V23.9106C453.193 24.5709 452.656 25.1085 451.995 25.1085H450.712V27.1497C450.712 27.2107 450.674 27.2647 450.617 27.2851C450.601 27.2908 450.585 27.294 450.568 27.294C450.526 27.294 450.485 27.2755 450.457 27.2419L448.683 25.1085H446.171V24.82H448.751C448.793 24.82 448.834 24.8391 448.862 24.8721H448.861Z" fill="#969696"/>
<path d="M439.663 16.0005H445.829V16.289H439.663C439.162 16.289 438.754 16.697 438.754 17.1984V23.9111C438.754 24.4125 439.162 24.8205 439.663 24.8205H445.829V25.109H439.663C439.003 25.109 438.465 24.5714 438.465 23.9111V17.1984C438.465 16.5381 439.003 16.0005 439.663 16.0005Z" fill="#969696"/>
<path d="M442.161 22.1712L442.116 20.9512L443.148 21.6055L443.414 21.1397L442.327 20.5741L443.414 20.0085L443.148 19.5427L442.116 20.197L442.161 18.9771H441.628L441.673 20.197L440.641 19.5427L440.375 20.0085L441.462 20.5741L440.375 21.1397L440.641 21.6055L441.673 20.9512L441.628 22.1712H442.161Z" fill="#969696"/>
<path d="M446.091 22.1712L446.046 20.9512L447.078 21.6055L447.344 21.1397L446.257 20.5741L447.344 20.0085L447.078 19.5427L446.046 20.197L446.091 18.9771H445.558L445.603 20.197L444.571 19.5427L444.305 20.0085L445.392 20.5741L444.305 21.1397L444.571 21.6055L445.603 20.9512L445.558 22.1712H446.091Z" fill="#969696"/>
<path d="M450.018 22.1712L449.974 20.9512L451.005 21.6055L451.271 21.1397L450.185 20.5741L451.271 20.0085L451.005 19.5427L449.974 20.197L450.018 18.9771H449.486L449.53 20.197L448.499 19.5427L448.233 20.0085L449.32 20.5741L448.233 21.1397L448.499 21.6055L449.53 20.9512L449.486 22.1712H450.018Z" fill="#969696"/>
<path d="M457.25 36.4814C457.25 37.0095 457.416 37.176 457.72 37.176C458.228 37.176 458.923 36.6676 458.942 35.0833C458.942 33.1565 457.632 31.8849 455.519 31.8849C453.406 31.8849 451.812 33.3516 451.812 35.5428C451.812 37.734 453.23 39.0443 455.352 39.0443C456.291 39.0443 457.035 38.8391 457.719 38.487L457.885 38.8194C457.22 39.2299 456.311 39.4746 455.352 39.4746C452.966 39.4746 451.382 37.8998 451.382 35.5428C451.382 33.1857 453.113 31.4839 455.519 31.4839C457.925 31.4839 459.373 32.9411 459.373 35.0833C459.353 37.0883 458.287 37.6361 457.534 37.6361C457.064 37.6361 456.674 37.4995 456.536 36.9517C456.028 37.4111 455.617 37.6361 454.903 37.6361C453.905 37.6361 453.279 37.0394 453.279 35.504C453.279 33.9687 453.954 33.4107 455.01 33.4107C455.548 33.4107 456.067 33.616 456.487 33.9096V33.4889H457.25V36.4814ZM456.487 34.6232C456.057 34.2515 455.714 34.0659 455.244 34.0659C454.521 34.0659 454.022 34.4472 454.022 35.5034C454.022 36.667 454.462 37.019 455.146 37.019C455.704 37.019 456.066 36.7064 456.486 36.3244V34.6226L456.487 34.6232Z" fill="#969696" stroke="#969696" stroke-width="0.0872728" stroke-miterlimit="10"/>
<path d="M465.7 22.7544C465.361 22.7544 465.085 22.4793 465.085 22.1399C465.085 21.8005 465.361 21.5254 465.7 21.5254C466.039 21.5254 466.314 21.8005 466.314 22.1399C466.314 22.4793 466.039 22.7544 465.7 22.7544Z" fill="#969696"/>
<path d="M467.741 26.2447C467.402 26.2447 467.126 25.9695 467.126 25.6301C467.126 25.2908 467.402 25.0156 467.741 25.0156C468.08 25.0156 468.355 25.2908 468.355 25.6301C468.355 25.9695 468.08 26.2447 467.741 26.2447Z" fill="#969696"/>
<path d="M463.775 26.2447C463.436 26.2447 463.161 25.9695 463.161 25.6301C463.161 25.2908 463.436 25.0156 463.775 25.0156C464.115 25.0156 464.39 25.2908 464.39 25.6301C464.39 25.9695 464.115 26.2447 463.775 26.2447Z" fill="#969696"/>
<circle cx="673" cy="35" r="35" fill="#E6E6E6"/>
<path d="M657.563 54.0002C662.292 54.0002 666.126 50.1665 666.126 45.4374C666.126 40.7082 662.292 36.8745 657.563 36.8745C652.834 36.8745 649 40.7082 649 45.4374C649 50.1665 652.834 54.0002 657.563 54.0002Z" fill="#CBCBCB"/>
<path d="M655.659 26.3284L672.95 18.1221L690.358 26.3284V29.4517H655.659V26.3284Z" stroke="#969696" stroke-width="0.574169" stroke-linecap="round" stroke-linejoin="round"/>
<path d="M662.871 31.9282H660.226V44.8731H662.871V31.9282Z" stroke="#969696" stroke-width="0.574169" stroke-linecap="round" stroke-linejoin="round"/>
<path d="M664.841 29.4512H658.256V31.9274H664.841V29.4512Z" stroke="#969696" stroke-width="0.574169" stroke-linecap="round" stroke-linejoin="round"/>
<path d="M664.841 44.873H658.256V47.3493H664.841V44.873Z" stroke="#969696" stroke-width="0.574169" stroke-linecap="round" stroke-linejoin="round"/>
<path d="M685.846 31.9282H683.201V44.8731H685.846V31.9282Z" stroke="#969696" stroke-width="0.574169" stroke-linecap="round" stroke-linejoin="round"/>
<path d="M687.817 29.4512H681.231V31.9274H687.817V29.4512Z" stroke="#969696" stroke-width="0.574169" stroke-linecap="round" stroke-linejoin="round"/>
<path d="M687.817 44.873H681.231V47.3493H687.817V44.873Z" stroke="#969696" stroke-width="0.574169" stroke-linecap="round" stroke-linejoin="round"/>
<path d="M690.78 47.3491H654.598V51.2326H690.78V47.3491Z" stroke="#969696" stroke-width="0.574169" stroke-linecap="round" stroke-linejoin="round"/>
<path d="M661.118 26.4629H684.954" stroke="#969696" stroke-width="0.574169" stroke-linecap="round" stroke-linejoin="round"/>
<path d="M666.666 23.7866H679.41" stroke="#969696" stroke-width="0.574169" stroke-linecap="round" stroke-linejoin="round"/>
<path d="M673.047 43.8149C676.088 43.8149 678.553 41.3497 678.553 38.3088C678.553 35.2679 676.088 32.8027 673.047 32.8027C670.006 32.8027 667.541 35.2679 667.541 38.3088C667.541 41.3497 670.006 43.8149 673.047 43.8149Z" stroke="#969696" stroke-width="0.574169" stroke-linecap="round" stroke-linejoin="round"/>
<path d="M674.788 36.7087C674.129 36.4329 673.44 36.2365 672.939 36.2365C672.348 36.2365 671.975 36.5217 671.975 36.9253C671.975 37.3976 672.24 37.5456 673.461 37.9189C674.769 38.3125 675.212 38.7457 675.212 39.5522C675.212 40.418 674.504 41.0087 673.343 41.0382V41.5993H672.743V41.0087C672.054 40.9199 671.424 40.6642 670.844 40.2115L671.169 39.5818C671.838 40.1032 672.576 40.3494 673.255 40.3494C673.933 40.3494 674.347 40.0346 674.347 39.5818C674.347 39.0901 674.022 38.9031 672.812 38.5096C671.543 38.1059 671.12 37.742 671.12 36.9253C671.12 36.1087 671.73 35.6169 672.733 35.5772V34.9375H673.344V35.5967C673.905 35.6654 674.455 35.843 675.006 36.0791L674.79 36.7087H674.788Z" fill="#969696"/>
<path d="M688.628 16.301C688.987 16.301 689.279 16.0098 689.279 15.6505C689.279 15.2912 688.987 15 688.628 15C688.269 15 687.978 15.2912 687.978 15.6505C687.978 16.0098 688.269 16.301 688.628 16.301Z" fill="#969696"/>
<path d="M686.469 19.9953C686.828 19.9953 687.119 19.7041 687.119 19.3448C687.119 18.9856 686.828 18.6943 686.469 18.6943C686.11 18.6943 685.818 18.9856 685.818 19.3448C685.818 19.7041 686.11 19.9953 686.469 19.9953Z" fill="#969696"/>
<path d="M690.668 19.9953C691.027 19.9953 691.319 19.7041 691.319 19.3448C691.319 18.9856 691.027 18.6943 690.668 18.6943C690.309 18.6943 690.018 18.9856 690.018 19.3448C690.018 19.7041 690.309 19.9953 690.668 19.9953Z" fill="#969696"/>
<line x1="493" y1="35" x2="638" y2="35" stroke="#969696" stroke-width="4"/>
</svg>
